<svg width="986" height="21" viewBox="0 0 986 21" fill="none" xmlns="http://www.w3.org/2000/svg">
<path d="M1.49012e-08 9.18C1.49012e-08 8.24667 0.173333 7.36667 0.52 6.54C0.88 5.7 1.36667 4.97333 1.98 4.36C2.60667 3.74667 3.32667 3.26 4.14 2.9C4.96667 2.54 5.85333 2.36 6.8 2.36C7.73333 2.36 8.61333 2.54 9.44 2.9C10.28 3.26 11.0067 3.74667 11.62 4.36C12.2333 4.97333 12.72 5.7 13.08 6.54C13.44 7.36667 13.62 8.24667 13.62 9.18C13.62 10.1267 13.44 11.0133 13.08 11.84C12.72 12.6533 12.2333 13.3733 11.62 14C11.0067 14.6133 10.28 15.1 9.44 15.46C8.61333 15.8067 7.73333 15.98 6.8 15.98C5.85333 15.98 4.96667 15.8067 4.14 15.46C3.32667 15.1 2.60667 14.6133 1.98 14C1.36667 13.3733 0.88 12.6533 0.52 11.84C0.173333 11.0133 1.49012e-08 10.1267 1.49012e-08 9.18ZM1.14 9.18C1.14 9.95333 1.28667 10.6867 1.58 11.38C1.88667 12.06 2.29333 12.66 2.8 13.18C3.32 13.6867 3.92 14.0933 4.6 14.4C5.29333 14.6933 6.02667 14.84 6.8 14.84C7.58667 14.84 8.32 14.6933 9 14.4C9.69333 14.0933 10.2933 13.6867 10.8 13.18C11.32 12.66 11.7267 12.06 12.02 11.38C12.3133 10.6867 12.46 9.95333 12.46 9.18C12.46 8.39333 12.3133 7.66 12.02 6.98C11.7267 6.28667 11.32 5.68667 10.8 5.18C10.2933 4.66 9.69333 4.25333 9 3.96C8.32 3.66667 7.58667 3.52 6.8 3.52C6.02667 3.52 5.29333 3.66667 4.6 3.96C3.92 4.25333 3.32 4.66 2.8 5.18C2.29333 5.68667 1.88667 6.28667 1.58 6.98C1.28667 7.66 1.14 8.39333 1.14 9.18ZM8.5 6.56C8.04667 6.46667 7.70667 6.41333 7.48 6.4C7.25333 6.37333 7.04 6.36 6.84 6.36C6.42667 6.36 6.08667 6.45333 5.82 6.64C5.55333 6.81333 5.34667 7.04 5.2 7.32C5.05333 7.6 4.94667 7.90667 4.88 8.24C4.82667 8.56 4.8 8.86667 4.8 9.16C4.8 9.64 4.86 10.0533 4.98 10.4C5.11333 10.7333 5.28 11.0133 5.48 11.24C5.69333 11.4667 5.93333 11.6333 6.2 11.74C6.46667 11.8467 6.73333 11.9 7 11.9C7.21333 11.9 7.45333 11.88 7.72 11.84C7.98667 11.8 8.29333 11.7267 8.64 11.62L8.88 12.8C8.45333 12.9467 8.07333 13.0467 7.74 13.1C7.42 13.14 7.12 13.16 6.84 13.16C6.33333 13.16 5.86 13.0933 5.42 12.96C4.99333 12.8267 4.62 12.6067 4.3 12.3C3.99333 11.9933 3.74667 11.58 3.56 11.06C3.38667 10.54 3.3 9.9 3.3 9.14C3.3 8.39333 3.4 7.76667 3.6 7.26C3.81333 6.74 4.08667 6.32667 4.42 6.02C4.75333 5.7 5.12667 5.47333 5.54 5.34C5.96667 5.19333 6.4 5.12 6.84 5.12C7.08 5.12 7.34667 5.14 7.64 5.18C7.93333 5.20667 8.31333 5.27333 8.78 5.38L8.5 6.56ZM22.6353 14.46H25.3353C26.0686 14.46 26.7553 14.3667 27.3953 14.18C28.0486 13.9933 28.6153 13.6933 29.0953 13.28C29.5886 12.8533 29.9753 12.3 30.2553 11.62C30.5353 10.94 30.6753 10.1133 30.6753 9.14C30.6753 8.23333 30.5486 7.45333 30.2953 6.8C30.042 6.13333 29.682 5.58667 29.2153 5.16C28.762 4.73333 28.202 4.42 27.5353 4.22C26.882 4.00667 26.1486 3.9 25.3353 3.9H22.6353V14.46ZM20.9553 2.36H25.3353C26.4153 2.36 27.3886 2.49333 28.2553 2.76C29.1353 3.02667 29.8886 3.44 30.5153 4C31.142 4.56 31.622 5.26667 31.9553 6.12C32.302 6.97333 32.4753 7.98 32.4753 9.14C32.4753 10.3133 32.2886 11.3333 31.9153 12.2C31.542 13.0533 31.0353 13.7667 30.3953 14.34C29.7553 14.9 29.002 15.32 28.1353 15.6C27.2686 15.8667 26.3353 16 25.3353 16H20.9553V2.36ZM34.9322 5.92L36.5322 5.74V16H34.9322V5.92ZM34.6722 3.06C34.6722 2.75333 34.7722 2.5 34.9722 2.3C35.1855 2.08667 35.4455 1.98 35.7522 1.98C36.0722 1.98 36.3389 2.08667 36.5522 2.3C36.7789 2.5 36.8922 2.75333 36.8922 3.06C36.8922 3.36667 36.7789 3.62667 36.5522 3.84C36.3389 4.04 36.0722 4.14 35.7522 4.14C35.4455 4.14 35.1855 4.04 34.9722 3.84C34.7722 3.62667 34.6722 3.36667 34.6722 3.06ZM44.8448 7.58C44.2848 7.40667 43.7848 7.29333 43.3448 7.24C42.9182 7.17333 42.5248 7.14 42.1648 7.14C41.6982 7.14 41.3048 7.25333 40.9848 7.48C40.6782 7.70667 40.5248 8 40.5248 8.36C40.5382 8.68 40.6782 8.95333 40.9448 9.18C41.2115 9.40667 41.5182 9.61333 41.8648 9.8C42.2248 9.97333 42.6182 10.1667 43.0448 10.38C43.4848 10.5933 43.8915 10.8333 44.2648 11.1C44.6515 11.3667 44.9648 11.6867 45.2048 12.06C45.4448 12.4333 45.5715 12.88 45.5848 13.4C45.5715 13.96 45.4448 14.4267 45.2048 14.8C44.9782 15.16 44.6782 15.4533 44.3048 15.68C43.9448 15.8933 43.5515 16.04 43.1248 16.12C42.6982 16.2133 42.2982 16.26 41.9248 16.26C41.4448 16.26 40.9448 16.2333 40.4248 16.18C39.9182 16.1267 39.3715 16.0133 38.7848 15.84L39.0848 14.4C39.6848 14.56 40.2315 14.68 40.7248 14.76C41.2182 14.8267 41.6248 14.86 41.9448 14.86C42.1848 14.86 42.4182 14.8333 42.6448 14.78C42.8848 14.7267 43.0982 14.6533 43.2848 14.56C43.4715 14.4533 43.6182 14.32 43.7248 14.16C43.8448 14 43.9048 13.82 43.9048 13.62C43.8915 13.2467 43.7648 12.9333 43.5248 12.68C43.2848 12.4133 42.9715 12.18 42.5848 11.98C42.2115 11.7667 41.8048 11.56 41.3648 11.36C40.9382 11.1467 40.5315 10.9067 40.1448 10.64C39.7715 10.36 39.4582 10.0333 39.2048 9.66C38.9515 9.27333 38.8248 8.8 38.8248 8.24C38.8248 7.84 38.9248 7.48667 39.1248 7.18C39.3382 6.86 39.6048 6.6 39.9248 6.4C40.2582 6.18667 40.6182 6.02667 41.0048 5.92C41.4048 5.8 41.7915 5.74 42.1648 5.74C42.5515 5.74 42.9848 5.77333 43.4648 5.84C43.9448 5.89333 44.4982 6 45.1248 6.16L44.8448 7.58ZM47.7647 7.94C47.778 7.66 47.7447 7.05333 47.6647 6.12L49.1447 5.92L49.3647 7.2C49.7647 6.93333 50.158 6.7 50.5447 6.5C50.9447 6.3 51.3514 6.12667 51.7647 5.98C52.178 5.82 52.578 5.74 52.9647 5.74C53.5114 5.74 53.9647 5.80667 54.3247 5.94C54.698 6.06 54.998 6.26667 55.2247 6.56C55.4514 6.85333 55.6114 7.24 55.7047 7.72C55.8114 8.2 55.8647 8.8 55.8647 9.52V16H54.2647V9.7C54.2647 9.3 54.258 8.94667 54.2447 8.64C54.2314 8.32 54.1714 8.05333 54.0647 7.84C53.9714 7.61333 53.818 7.44 53.6047 7.32C53.4047 7.2 53.118 7.14 52.7447 7.14C52.398 7.14 52.0314 7.22 51.6447 7.38C51.258 7.52667 50.878 7.7 50.5047 7.9C50.1314 8.1 49.7514 8.33333 49.3647 8.6V16H47.7647V7.94ZM66.1222 15.76C65.8155 15.8533 65.4955 15.9333 65.1622 16C64.8422 16.0667 64.4822 16.1267 64.0822 16.18C63.6955 16.2333 63.2889 16.26 62.8622 16.26C62.1955 16.26 61.5755 16.1667 61.0022 15.98C60.4289 15.7933 59.9289 15.4933 59.5022 15.08C59.0755 14.6667 58.7355 14.1333 58.4822 13.48C58.2422 12.8133 58.1222 12 58.1222 11.04C58.1222 10.1733 58.2422 9.41333 58.4822 8.76C58.7222 8.09333 59.0489 7.54 59.4622 7.1C59.8889 6.64667 60.3822 6.30667 60.9422 6.08C61.5155 5.85333 62.1355 5.74 62.8022 5.74C63.4555 5.74 64.0222 5.86667 64.5022 6.12C64.9822 6.37333 65.3755 6.72 65.6822 7.16C66.0022 7.58667 66.2355 8.09333 66.3822 8.68C66.5422 9.25333 66.6222 9.86 66.6222 10.5L66.3222 11.38H59.8622C59.8622 11.7933 59.9155 12.2067 60.0222 12.62C60.1289 13.0333 60.3089 13.4067 60.5622 13.74C60.8289 14.0733 61.1689 14.3467 61.5822 14.56C62.0089 14.76 62.5355 14.86 63.1622 14.86C63.5622 14.86 63.9289 14.84 64.2622 14.8C64.5955 14.7467 64.8822 14.6933 65.1222 14.64C65.3755 14.5733 65.6089 14.5 65.8222 14.42L66.1222 15.76ZM64.9622 10.1C64.9622 10.0067 64.9422 9.8 64.9022 9.48C64.8622 9.16 64.7689 8.82667 64.6222 8.48C64.4755 8.13333 64.2489 7.82667 63.9422 7.56C63.6355 7.28 63.2289 7.14 62.7222 7.14C62.1622 7.14 61.7022 7.26 61.3422 7.5C60.9822 7.72667 60.6955 8 60.4822 8.32C60.2689 8.64 60.1222 8.96667 60.0422 9.3C59.9622 9.63333 59.9222 9.9 59.9222 10.1H64.9622ZM67.4994 5.94H69.1994L71.0794 10.48C71.266 10.92 71.4327 11.36 71.5794 11.8C71.7394 12.24 71.8794 12.6333 71.9994 12.98C72.146 13.3933 72.2727 13.7933 72.3794 14.18H72.3994C72.5194 13.7933 72.6527 13.3933 72.7994 12.98C72.9194 12.6333 73.0594 12.24 73.2194 11.8C73.3794 11.36 73.546 10.92 73.7194 10.48L75.4594 5.94H77.1394L72.3794 17.94C72.1927 18.4333 71.946 18.86 71.6394 19.22C71.346 19.58 71.0594 19.88 70.7794 20.12C70.446 20.4 70.0994 20.64 69.7394 20.84L68.9594 19.46C69.2394 19.3267 69.4994 19.16 69.7394 18.96C69.9527 18.7867 70.166 18.5667 70.3794 18.3C70.5927 18.0467 70.766 17.74 70.8994 17.38L71.5194 15.74L67.4994 5.94ZM82.8711 9.18C82.8711 8.24667 83.0444 7.36667 83.3911 6.54C83.7511 5.7 84.2378 4.97333 84.8511 4.36C85.4778 3.74667 86.1978 3.26 87.0111 2.9C87.8378 2.54 88.7244 2.36 89.6711 2.36C90.6044 2.36 91.4844 2.54 92.3111 2.9C93.1511 3.26 93.8778 3.74667 94.4911 4.36C95.1044 4.97333 95.5911 5.7 95.9511 6.54C96.3111 7.36667 96.4911 8.24667 96.4911 9.18C96.4911 10.1267 96.3111 11.0133 95.9511 11.84C95.5911 12.6533 95.1044 13.3733 94.4911 14C93.8778 14.6133 93.1511 15.1 92.3111 15.46C91.4844 15.8067 90.6044 15.98 89.6711 15.98C88.7244 15.98 87.8378 15.8067 87.0111 15.46C86.1978 15.1 85.4778 14.6133 84.8511 14C84.2378 13.3733 83.7511 12.6533 83.3911 11.84C83.0444 11.0133 82.8711 10.1267 82.8711 9.18ZM84.0111 9.18C84.0111 9.95333 84.1578 10.6867 84.4511 11.38C84.7578 12.06 85.1644 12.66 85.6711 13.18C86.1911 13.6867 86.7911 14.0933 87.4711 14.4C88.1644 14.6933 88.8978 14.84 89.6711 14.84C90.4578 14.84 91.1911 14.6933 91.8711 14.4C92.5644 14.0933 93.1644 13.6867 93.6711 13.18C94.1911 12.66 94.5978 12.06 94.8911 11.38C95.1844 10.6867 95.3311 9.95333 95.3311 9.18C95.3311 8.39333 95.1844 7.66 94.8911 6.98C94.5978 6.28667 94.1911 5.68667 93.6711 5.18C93.1644 4.66 92.5644 4.25333 91.8711 3.96C91.1911 3.66667 90.4578 3.52 89.6711 3.52C88.8978 3.52 88.1644 3.66667 87.4711 3.96C86.7911 4.25333 86.1911 4.66 85.6711 5.18C85.1644 5.68667 84.7578 6.28667 84.4511 6.98C84.1578 7.66 84.0111 8.39333 84.0111 9.18ZM91.3711 6.56C90.9178 6.46667 90.5778 6.41333 90.3511 6.4C90.1244 6.37333 89.9111 6.36 89.7111 6.36C89.2978 6.36 88.9578 6.45333 88.6911 6.64C88.4244 6.81333 88.2178 7.04 88.0711 7.32C87.9244 7.6 87.8178 7.90667 87.7511 8.24C87.6978 8.56 87.6711 8.86667 87.6711 9.16C87.6711 9.64 87.7311 10.0533 87.8511 10.4C87.9844 10.7333 88.1511 11.0133 88.3511 11.24C88.5644 11.4667 88.8044 11.6333 89.0711 11.74C89.3378 11.8467 89.6044 11.9 89.8711 11.9C90.0844 11.9 90.3244 11.88 90.5911 11.84C90.8578 11.8 91.1644 11.7267 91.5111 11.62L91.7511 12.8C91.3244 12.9467 90.9444 13.0467 90.6111 13.1C90.2911 13.14 89.9911 13.16 89.7111 13.16C89.2044 13.16 88.7311 13.0933 88.2911 12.96C87.8644 12.8267 87.4911 12.6067 87.1711 12.3C86.8644 11.9933 86.6178 11.58 86.4311 11.06C86.2578 10.54 86.1711 9.9 86.1711 9.14C86.1711 8.39333 86.2711 7.76667 86.4711 7.26C86.6844 6.74 86.9578 6.32667 87.2911 6.02C87.6244 5.7 87.9978 5.47333 88.4111 5.34C88.8378 5.19333 89.2711 5.12 89.7111 5.12C89.9511 5.12 90.2178 5.14 90.5111 5.18C90.8044 5.20667 91.1844 5.27333 91.6511 5.38L91.3711 6.56ZM105.506 14.46H108.206C108.94 14.46 109.626 14.3667 110.266 14.18C110.92 13.9933 111.486 13.6933 111.966 13.28C112.46 12.8533 112.846 12.3 113.126 11.62C113.406 10.94 113.546 10.1133 113.546 9.14C113.546 8.23333 113.42 7.45333 113.166 6.8C112.913 6.13333 112.553 5.58667 112.086 5.16C111.633 4.73333 111.073 4.42 110.406 4.22C109.753 4.00667 109.02 3.9 108.206 3.9H105.506V14.46ZM103.826 2.36H108.206C109.286 2.36 110.26 2.49333 111.126 2.76C112.006 3.02667 112.76 3.44 113.386 4C114.013 4.56 114.493 5.26667 114.826 6.12C115.173 6.97333 115.346 7.98 115.346 9.14C115.346 10.3133 115.16 11.3333 114.786 12.2C114.413 13.0533 113.906 13.7667 113.266 14.34C112.626 14.9 111.873 15.32 111.006 15.6C110.14 15.8667 109.206 16 108.206 16H103.826V2.36ZM117.803 5.92L119.403 5.74V16H117.803V5.92ZM117.543 3.06C117.543 2.75333 117.643 2.5 117.843 2.3C118.057 2.08667 118.317 1.98 118.623 1.98C118.943 1.98 119.21 2.08667 119.423 2.3C119.65 2.5 119.763 2.75333 119.763 3.06C119.763 3.36667 119.65 3.62667 119.423 3.84C119.21 4.04 118.943 4.14 118.623 4.14C118.317 4.14 118.057 4.04 117.843 3.84C117.643 3.62667 117.543 3.36667 117.543 3.06ZM127.716 7.58C127.156 7.40667 126.656 7.29333 126.216 7.24C125.789 7.17333 125.396 7.14 125.036 7.14C124.569 7.14 124.176 7.25333 123.856 7.48C123.549 7.70667 123.396 8 123.396 8.36C123.409 8.68 123.549 8.95333 123.816 9.18C124.083 9.40667 124.389 9.61333 124.736 9.8C125.096 9.97333 125.489 10.1667 125.916 10.38C126.356 10.5933 126.763 10.8333 127.136 11.1C127.523 11.3667 127.836 11.6867 128.076 12.06C128.316 12.4333 128.443 12.88 128.456 13.4C128.443 13.96 128.316 14.4267 128.076 14.8C127.849 15.16 127.549 15.4533 127.176 15.68C126.816 15.8933 126.423 16.04 125.996 16.12C125.569 16.2133 125.169 16.26 124.796 16.26C124.316 16.26 123.816 16.2333 123.296 16.18C122.789 16.1267 122.243 16.0133 121.656 15.84L121.956 14.4C122.556 14.56 123.103 14.68 123.596 14.76C124.089 14.8267 124.496 14.86 124.816 14.86C125.056 14.86 125.289 14.8333 125.516 14.78C125.756 14.7267 125.969 14.6533 126.156 14.56C126.343 14.4533 126.489 14.32 126.596 14.16C126.716 14 126.776 13.82 126.776 13.62C126.763 13.2467 126.636 12.9333 126.396 12.68C126.156 12.4133 125.843 12.18 125.456 11.98C125.083 11.7667 124.676 11.56 124.236 11.36C123.809 11.1467 123.403 10.9067 123.016 10.64C122.643 10.36 122.329 10.0333 122.076 9.66C121.823 9.27333 121.696 8.8 121.696 8.24C121.696 7.84 121.796 7.48667 121.996 7.18C122.209 6.86 122.476 6.6 122.796 6.4C123.129 6.18667 123.489 6.02667 123.876 5.92C124.276 5.8 124.663 5.74 125.036 5.74C125.423 5.74 125.856 5.77333 126.336 5.84C126.816 5.89333 127.369 6 127.996 6.16L127.716 7.58ZM130.636 7.94C130.649 7.66 130.616 7.05333 130.536 6.12L132.016 5.92L132.236 7.2C132.636 6.93333 133.029 6.7 133.416 6.5C133.816 6.3 134.222 6.12667 134.636 5.98C135.049 5.82 135.449 5.74 135.836 5.74C136.382 5.74 136.836 5.80667 137.196 5.94C137.569 6.06 137.869 6.26667 138.096 6.56C138.322 6.85333 138.482 7.24 138.576 7.72C138.682 8.2 138.736 8.8 138.736 9.52V16H137.136V9.7C137.136 9.3 137.129 8.94667 137.116 8.64C137.102 8.32 137.042 8.05333 136.936 7.84C136.842 7.61333 136.689 7.44 136.476 7.32C136.276 7.2 135.989 7.14 135.616 7.14C135.269 7.14 134.902 7.22 134.516 7.38C134.129 7.52667 133.749 7.7 133.376 7.9C133.002 8.1 132.622 8.33333 132.236 8.6V16H130.636V7.94ZM148.993 15.76C148.687 15.8533 148.367 15.9333 148.033 16C147.713 16.0667 147.353 16.1267 146.953 16.18C146.567 16.2333 146.16 16.26 145.733 16.26C145.067 16.26 144.447 16.1667 143.873 15.98C143.3 15.7933 142.8 15.4933 142.373 15.08C141.947 14.6667 141.607 14.1333 141.353 13.48C141.113 12.8133 140.993 12 140.993 11.04C140.993 10.1733 141.113 9.41333 141.353 8.76C141.593 8.09333 141.92 7.54 142.333 7.1C142.76 6.64667 143.253 6.30667 143.813 6.08C144.387 5.85333 145.007 5.74 145.673 5.74C146.327 5.74 146.893 5.86667 147.373 6.12C147.853 6.37333 148.247 6.72 148.553 7.16C148.873 7.58667 149.107 8.09333 149.253 8.68C149.413 9.25333 149.493 9.86 149.493 10.5L149.193 11.38H142.733C142.733 11.7933 142.787 12.2067 142.893 12.62C143 13.0333 143.18 13.4067 143.433 13.74C143.7 14.0733 144.04 14.3467 144.453 14.56C144.88 14.76 145.407 14.86 146.033 14.86C146.433 14.86 146.8 14.84 147.133 14.8C147.467 14.7467 147.753 14.6933 147.993 14.64C148.247 14.5733 148.48 14.5 148.693 14.42L148.993 15.76ZM147.833 10.1C147.833 10.0067 147.813 9.8 147.773 9.48C147.733 9.16 147.64 8.82667 147.493 8.48C147.347 8.13333 147.12 7.82667 146.813 7.56C146.507 7.28 146.1 7.14 145.593 7.14C145.033 7.14 144.573 7.26 144.213 7.5C143.853 7.72667 143.567 8 143.353 8.32C143.14 8.64 142.993 8.96667 142.913 9.3C142.833 9.63333 142.793 9.9 142.793 10.1H147.833ZM150.37 5.94H152.07L153.95 10.48C154.137 10.92 154.304 11.36 154.45 11.8C154.61 12.24 154.75 12.6333 154.87 12.98C155.017 13.3933 155.144 13.7933 155.25 14.18H155.27C155.39 13.7933 155.524 13.3933 155.67 12.98C155.79 12.6333 155.93 12.24 156.09 11.8C156.25 11.36 156.417 10.92 156.59 10.48L158.33 5.94H160.01L155.25 17.94C155.064 18.4333 154.817 18.86 154.51 19.22C154.217 19.58 153.93 19.88 153.65 20.12C153.317 20.4 152.97 20.64 152.61 20.84L151.83 19.46C152.11 19.3267 152.37 19.16 152.61 18.96C152.824 18.7867 153.037 18.5667 153.25 18.3C153.464 18.0467 153.637 17.74 153.77 17.38L154.39 15.74L150.37 5.94ZM161.092 10.66C161.092 10.34 161.159 10.0333 161.292 9.74C161.425 9.44667 161.599 9.19333 161.812 8.98C162.039 8.76667 162.299 8.6 162.592 8.48C162.899 8.34667 163.225 8.28 163.572 8.28C163.905 8.28 164.225 8.34667 164.532 8.48C164.839 8.6 165.105 8.76667 165.332 8.98C165.559 9.19333 165.739 9.44667 165.872 9.74C166.019 10.0333 166.092 10.34 166.092 10.66C166.092 11.0067 166.019 11.34 165.872 11.66C165.739 11.9667 165.559 12.24 165.332 12.48C165.105 12.7067 164.839 12.8867 164.532 13.02C164.225 13.1533 163.905 13.22 163.572 13.22C163.225 13.22 162.899 13.1533 162.592 13.02C162.299 12.8867 162.039 12.7067 161.812 12.48C161.599 12.24 161.425 11.9667 161.292 11.66C161.159 11.34 161.092 11.0067 161.092 10.66ZM168.748 2.36H171.888C173.622 2.36 174.902 2.66667 175.728 3.28C176.568 3.89333 176.988 4.92667 176.988 6.38C176.988 7.18 176.835 7.84667 176.528 8.38C176.222 8.91333 175.835 9.34667 175.368 9.68C174.915 10 174.422 10.2333 173.888 10.38C173.355 10.5133 172.862 10.58 172.408 10.58H170.428V16H168.748V2.36ZM170.428 9.08H172.268C172.722 9.08 173.128 9.04 173.488 8.96C173.862 8.86667 174.182 8.72 174.448 8.52C174.715 8.30667 174.922 8.02667 175.068 7.68C175.215 7.32 175.288 6.87333 175.288 6.34C175.288 5.80667 175.208 5.38 175.048 5.06C174.902 4.72667 174.675 4.47333 174.368 4.3C174.075 4.12667 173.702 4.01333 173.248 3.96C172.795 3.89333 172.268 3.86 171.668 3.86H170.428V9.08ZM179.229 5.92L180.829 5.74V16H179.229V5.92ZM178.969 3.06C178.969 2.75333 179.069 2.5 179.269 2.3C179.482 2.08667 179.742 1.98 180.049 1.98C180.369 1.98 180.636 2.08667 180.849 2.3C181.076 2.5 181.189 2.75333 181.189 3.06C181.189 3.36667 181.076 3.62667 180.849 3.84C180.636 4.04 180.369 4.14 180.049 4.14C179.742 4.14 179.482 4.04 179.269 3.84C179.069 3.62667 178.969 3.36667 178.969 3.06ZM186.342 10.72L182.622 5.94H184.502L187.442 9.66L190.222 5.94H192.022L188.522 10.66L192.362 16H190.482L187.422 11.74L184.322 16H182.522L186.342 10.72ZM199.575 11.38C199.308 11.3933 199.055 11.4067 198.815 11.42C198.575 11.4333 198.335 11.4533 198.095 11.48C197.868 11.4933 197.662 11.5133 197.475 11.54C196.515 11.66 195.835 11.8733 195.435 12.18C195.035 12.4733 194.835 12.9 194.835 13.46C194.835 13.9267 194.975 14.28 195.255 14.52C195.548 14.7467 195.928 14.86 196.395 14.86C197.035 14.86 197.602 14.7533 198.095 14.54C198.602 14.3133 199.095 14.02 199.575 13.66V11.38ZM199.555 15.06C198.928 15.42 198.342 15.7133 197.795 15.94C197.262 16.1533 196.682 16.26 196.055 16.26C195.162 16.26 194.448 16.0467 193.915 15.62C193.395 15.18 193.135 14.46 193.135 13.46C193.135 12.94 193.268 12.4867 193.535 12.1C193.802 11.7133 194.148 11.3933 194.575 11.14C195.015 10.8733 195.508 10.6667 196.055 10.52C196.602 10.3733 197.162 10.28 197.735 10.24C197.975 10.2133 198.288 10.1933 198.675 10.18C199.062 10.1533 199.362 10.1333 199.575 10.12C199.575 9.65333 199.562 9.24 199.535 8.88C199.508 8.50667 199.428 8.19333 199.295 7.94C199.162 7.67333 198.962 7.47333 198.695 7.34C198.442 7.20667 198.075 7.14 197.595 7.14C197.208 7.14 196.835 7.16667 196.475 7.22C196.115 7.26 195.795 7.30667 195.515 7.36C195.182 7.42667 194.875 7.5 194.595 7.58L194.275 6.2C194.608 6.12 194.968 6.04667 195.355 5.98C195.688 5.91333 196.075 5.86 196.515 5.82C196.955 5.76667 197.428 5.74 197.935 5.74C198.615 5.74 199.162 5.84 199.575 6.04C200.002 6.24 200.328 6.51333 200.555 6.86C200.795 7.19333 200.955 7.58 201.035 8.02C201.128 8.44667 201.175 8.9 201.175 9.38V14.18C201.175 14.3667 201.175 14.5667 201.175 14.78C201.188 14.98 201.202 15.18 201.215 15.38C201.242 15.58 201.268 15.7867 201.295 16L199.755 16.16L199.555 15.06ZM204.015 7.56C204.015 7.25333 203.981 6.77333 203.915 6.12L205.395 5.92L205.555 7.38H205.575C205.815 7.07333 206.048 6.80667 206.275 6.58C206.501 6.35333 206.735 6.16 206.975 6C207.228 5.82667 207.468 5.74 207.695 5.74C208.001 5.72667 208.428 5.76 208.975 5.84L208.615 7.38C208.175 7.3 207.868 7.26667 207.695 7.28C207.468 7.28 207.228 7.38667 206.975 7.6C206.721 7.81333 206.501 8.04 206.315 8.28C206.075 8.57333 205.841 8.90667 205.615 9.28V16H204.015V7.56ZM214.863 9.18C214.863 8.24667 215.037 7.36667 215.383 6.54C215.743 5.7 216.23 4.97333 216.843 4.36C217.47 3.74667 218.19 3.26 219.003 2.9C219.83 2.54 220.717 2.36 221.663 2.36C222.597 2.36 223.477 2.54 224.303 2.9C225.143 3.26 225.87 3.74667 226.483 4.36C227.097 4.97333 227.583 5.7 227.943 6.54C228.303 7.36667 228.483 8.24667 228.483 9.18C228.483 10.1267 228.303 11.0133 227.943 11.84C227.583 12.6533 227.097 13.3733 226.483 14C225.87 14.6133 225.143 15.1 224.303 15.46C223.477 15.8067 222.597 15.98 221.663 15.98C220.717 15.98 219.83 15.8067 219.003 15.46C218.19 15.1 217.47 14.6133 216.843 14C216.23 13.3733 215.743 12.6533 215.383 11.84C215.037 11.0133 214.863 10.1267 214.863 9.18ZM216.003 9.18C216.003 9.95333 216.15 10.6867 216.443 11.38C216.75 12.06 217.157 12.66 217.663 13.18C218.183 13.6867 218.783 14.0933 219.463 14.4C220.157 14.6933 220.89 14.84 221.663 14.84C222.45 14.84 223.183 14.6933 223.863 14.4C224.557 14.0933 225.157 13.6867 225.663 13.18C226.183 12.66 226.59 12.06 226.883 11.38C227.177 10.6867 227.323 9.95333 227.323 9.18C227.323 8.39333 227.177 7.66 226.883 6.98C226.59 6.28667 226.183 5.68667 225.663 5.18C225.157 4.66 224.557 4.25333 223.863 3.96C223.183 3.66667 222.45 3.52 221.663 3.52C220.89 3.52 220.157 3.66667 219.463 3.96C218.783 4.25333 218.183 4.66 217.663 5.18C217.157 5.68667 216.75 6.28667 216.443 6.98C216.15 7.66 216.003 8.39333 216.003 9.18ZM223.363 6.56C222.91 6.46667 222.57 6.41333 222.343 6.4C222.117 6.37333 221.903 6.36 221.703 6.36C221.29 6.36 220.95 6.45333 220.683 6.64C220.417 6.81333 220.21 7.04 220.063 7.32C219.917 7.6 219.81 7.90667 219.743 8.24C219.69 8.56 219.663 8.86667 219.663 9.16C219.663 9.64 219.723 10.0533 219.843 10.4C219.977 10.7333 220.143 11.0133 220.343 11.24C220.557 11.4667 220.797 11.6333 221.063 11.74C221.33 11.8467 221.597 11.9 221.863 11.9C222.077 11.9 222.317 11.88 222.583 11.84C222.85 11.8 223.157 11.7267 223.503 11.62L223.743 12.8C223.317 12.9467 222.937 13.0467 222.603 13.1C222.283 13.14 221.983 13.16 221.703 13.16C221.197 13.16 220.723 13.0933 220.283 12.96C219.857 12.8267 219.483 12.6067 219.163 12.3C218.857 11.9933 218.61 11.58 218.423 11.06C218.25 10.54 218.163 9.9 218.163 9.14C218.163 8.39333 218.263 7.76667 218.463 7.26C218.677 6.74 218.95 6.32667 219.283 6.02C219.617 5.7 219.99 5.47333 220.403 5.34C220.83 5.19333 221.263 5.12 221.703 5.12C221.943 5.12 222.21 5.14 222.503 5.18C222.797 5.20667 223.177 5.27333 223.643 5.38L223.363 6.56ZM247.099 16.42C246.632 16.06 246.159 15.68 245.679 15.28C245.212 14.88 244.739 14.4667 244.259 14.04C243.632 14.6933 242.899 15.2267 242.059 15.64C241.232 16.0533 240.279 16.26 239.199 16.26C238.612 16.26 238.072 16.1867 237.579 16.04C237.085 15.8933 236.659 15.68 236.299 15.4C235.939 15.1067 235.652 14.74 235.439 14.3C235.239 13.86 235.139 13.3467 235.139 12.76C235.139 12.1733 235.252 11.6533 235.479 11.2C235.719 10.7333 236.012 10.32 236.359 9.96C236.705 9.6 237.072 9.28667 237.459 9.02C237.845 8.74 238.199 8.5 238.519 8.3C238.279 8.00667 238.025 7.70667 237.759 7.4C237.492 7.09333 237.245 6.77333 237.019 6.44C236.805 6.09333 236.625 5.72667 236.479 5.34C236.345 4.95333 236.279 4.53333 236.279 4.08C236.279 3.70667 236.345 3.33333 236.479 2.96C236.625 2.58667 236.845 2.25333 237.139 1.96C237.445 1.66667 237.839 1.42667 238.319 1.24C238.812 1.05333 239.412 0.959999 240.119 0.959999C240.839 0.959999 241.432 1.04667 241.899 1.22C242.379 1.38 242.759 1.6 243.039 1.88C243.319 2.16 243.512 2.49333 243.619 2.88C243.739 3.25333 243.799 3.65333 243.799 4.08C243.799 4.56 243.699 5.02 243.499 5.46C243.299 5.88667 243.039 6.28667 242.719 6.66C242.412 7.03333 242.072 7.37333 241.699 7.68C241.325 7.98667 240.965 8.25333 240.619 8.48C241.259 9.16 241.859 9.78667 242.419 10.36C242.992 10.92 243.545 11.4467 244.079 11.94C244.439 11.4067 244.752 10.8467 245.019 10.26C245.285 9.67333 245.512 9.1 245.699 8.54L247.019 8.98C246.832 9.60667 246.585 10.26 246.279 10.94C245.985 11.62 245.612 12.28 245.159 12.92C245.652 13.36 246.125 13.7867 246.579 14.2C247.045 14.6 247.512 15.0133 247.979 15.44L247.099 16.42ZM239.199 14.86C239.999 14.86 240.725 14.7 241.379 14.38C242.045 14.0467 242.639 13.6067 243.159 13.06C242.492 12.46 241.839 11.8467 241.199 11.22C240.572 10.5933 239.979 9.96 239.419 9.32C239.085 9.54667 238.759 9.78 238.439 10.02C238.119 10.26 237.832 10.52 237.579 10.8C237.325 11.08 237.119 11.3867 236.959 11.72C236.812 12.0533 236.739 12.42 236.739 12.82C236.739 13.06 236.785 13.3067 236.879 13.56C236.985 13.8 237.139 14.02 237.339 14.22C237.552 14.4067 237.812 14.56 238.119 14.68C238.425 14.8 238.785 14.86 239.199 14.86ZM237.879 4.08C237.879 4.4 237.919 4.69333 237.999 4.96C238.079 5.22667 238.192 5.49333 238.339 5.76C238.499 6.02667 238.699 6.30667 238.939 6.6C239.179 6.88 239.459 7.20667 239.779 7.58C240.099 7.36667 240.399 7.13333 240.679 6.88C240.972 6.61333 241.232 6.33333 241.459 6.04C241.685 5.74667 241.865 5.44 241.999 5.12C242.132 4.8 242.199 4.46667 242.199 4.12C242.199 3.56 242.052 3.12667 241.759 2.82C241.479 2.51333 240.932 2.36 240.119 2.36C239.372 2.36 238.812 2.51333 238.439 2.82C238.065 3.12667 237.879 3.54667 237.879 4.08ZM255.753 1.82H253.513V0.819999H259.173V1.82H256.933V9.02H255.753V1.82ZM260.493 0.819999H261.773L264.333 7.56H264.353L266.933 0.819999H268.213L268.633 9.02H267.613L267.273 3.72C267.26 3.57333 267.253 3.44667 267.253 3.34C267.267 3.23333 267.28 3.14 267.293 3.06C267.307 2.96667 267.327 2.88667 267.353 2.82H267.333L264.853 9.02H263.833L261.333 2.82H261.313C261.327 2.88667 261.34 2.96667 261.353 3.06C261.367 3.14 261.373 3.23333 261.373 3.34C261.387 3.44667 261.393 3.57333 261.393 3.72L261.073 9.02H260.053L260.493 0.819999ZM276.971 2.36H278.651V14.4H284.851V16H276.971V2.36ZM292.651 14.9H292.611C292.491 14.9933 292.318 15.12 292.091 15.28C291.865 15.4267 291.605 15.5733 291.311 15.72C291.018 15.8667 290.691 15.9933 290.331 16.1C289.985 16.2067 289.631 16.26 289.271 16.26C288.778 16.26 288.358 16.1933 288.011 16.06C287.665 15.94 287.385 15.7333 287.171 15.44C286.958 15.1467 286.805 14.76 286.711 14.28C286.618 13.8 286.571 13.2 286.571 12.48V5.94H288.171V12.24C288.171 12.64 288.178 13 288.191 13.32C288.205 13.64 288.251 13.9133 288.331 14.14C288.411 14.3667 288.538 14.5467 288.711 14.68C288.898 14.8 289.158 14.86 289.491 14.86C289.838 14.86 290.198 14.7867 290.571 14.64C290.945 14.4933 291.285 14.3267 291.591 14.14C291.951 13.9267 292.305 13.6867 292.651 13.42V5.94H294.251V14.7C294.265 15.18 294.298 15.6133 294.351 16L292.771 16.16L292.651 14.9ZM303.399 7.4C303.172 7.34667 302.859 7.29333 302.459 7.24C302.059 7.17333 301.652 7.14 301.239 7.14C300.639 7.14 300.145 7.26 299.759 7.5C299.385 7.74 299.092 8.05333 298.879 8.44C298.665 8.81333 298.519 9.23333 298.439 9.7C298.359 10.1533 298.319 10.6 298.319 11.04C298.319 11.72 298.405 12.3067 298.579 12.8C298.752 13.28 298.979 13.6733 299.259 13.98C299.552 14.2867 299.885 14.5133 300.259 14.66C300.632 14.7933 301.025 14.86 301.439 14.86C301.719 14.86 301.985 14.8467 302.239 14.82C302.505 14.78 302.745 14.74 302.959 14.7C303.185 14.6467 303.399 14.5867 303.599 14.52L303.919 15.86C303.639 15.94 303.379 16.0067 303.139 16.06C302.899 16.1133 302.612 16.16 302.279 16.2C301.959 16.24 301.612 16.26 301.239 16.26C300.505 16.26 299.852 16.1667 299.279 15.98C298.705 15.7933 298.219 15.4933 297.819 15.08C297.432 14.6667 297.132 14.1267 296.919 13.46C296.719 12.7933 296.619 11.98 296.619 11.02C296.619 10.0867 296.745 9.28667 296.999 8.62C297.265 7.94 297.612 7.39333 298.039 6.98C298.465 6.55333 298.952 6.24 299.499 6.04C300.059 5.84 300.639 5.74 301.239 5.74C301.559 5.74 301.865 5.76 302.159 5.8C302.465 5.82667 302.732 5.86 302.959 5.9C303.225 5.95333 303.479 6.00667 303.719 6.06L303.399 7.4ZM311.411 11.38C311.144 11.3933 310.891 11.4067 310.651 11.42C310.411 11.4333 310.171 11.4533 309.931 11.48C309.704 11.4933 309.498 11.5133 309.311 11.54C308.351 11.66 307.671 11.8733 307.271 12.18C306.871 12.4733 306.671 12.9 306.671 13.46C306.671 13.9267 306.811 14.28 307.091 14.52C307.384 14.7467 307.764 14.86 308.231 14.86C308.871 14.86 309.438 14.7533 309.931 14.54C310.438 14.3133 310.931 14.02 311.411 13.66V11.38ZM311.391 15.06C310.764 15.42 310.178 15.7133 309.631 15.94C309.098 16.1533 308.518 16.26 307.891 16.26C306.998 16.26 306.284 16.0467 305.751 15.62C305.231 15.18 304.971 14.46 304.971 13.46C304.971 12.94 305.104 12.4867 305.371 12.1C305.638 11.7133 305.984 11.3933 306.411 11.14C306.851 10.8733 307.344 10.6667 307.891 10.52C308.438 10.3733 308.998 10.28 309.571 10.24C309.811 10.2133 310.124 10.1933 310.511 10.18C310.898 10.1533 311.198 10.1333 311.411 10.12C311.411 9.65333 311.398 9.24 311.371 8.88C311.344 8.50667 311.264 8.19333 311.131 7.94C310.998 7.67333 310.798 7.47333 310.531 7.34C310.278 7.20667 309.911 7.14 309.431 7.14C309.044 7.14 308.671 7.16667 308.311 7.22C307.951 7.26 307.631 7.30667 307.351 7.36C307.018 7.42667 306.711 7.5 306.431 7.58L306.111 6.2C306.444 6.12 306.804 6.04667 307.191 5.98C307.524 5.91333 307.911 5.86 308.351 5.82C308.791 5.76667 309.264 5.74 309.771 5.74C310.451 5.74 310.998 5.84 311.411 6.04C311.838 6.24 312.164 6.51333 312.391 6.86C312.631 7.19333 312.791 7.58 312.871 8.02C312.964 8.44667 313.011 8.9 313.011 9.38V14.18C313.011 14.3667 313.011 14.5667 313.011 14.78C313.024 14.98 313.038 15.18 313.051 15.38C313.078 15.58 313.104 15.7867 313.131 16L311.591 16.16L311.391 15.06ZM321.271 7.58C320.711 7.40667 320.211 7.29333 319.771 7.24C319.344 7.17333 318.951 7.14 318.591 7.14C318.124 7.14 317.731 7.25333 317.411 7.48C317.104 7.70667 316.951 8 316.951 8.36C316.964 8.68 317.104 8.95333 317.371 9.18C317.637 9.40667 317.944 9.61333 318.291 9.8C318.651 9.97333 319.044 10.1667 319.471 10.38C319.911 10.5933 320.317 10.8333 320.691 11.1C321.077 11.3667 321.391 11.6867 321.631 12.06C321.871 12.4333 321.997 12.88 322.011 13.4C321.997 13.96 321.871 14.4267 321.631 14.8C321.404 15.16 321.104 15.4533 320.731 15.68C320.371 15.8933 319.977 16.04 319.551 16.12C319.124 16.2133 318.724 16.26 318.351 16.26C317.871 16.26 317.371 16.2333 316.851 16.18C316.344 16.1267 315.797 16.0133 315.211 15.84L315.511 14.4C316.111 14.56 316.657 14.68 317.151 14.76C317.644 14.8267 318.051 14.86 318.371 14.86C318.611 14.86 318.844 14.8333 319.071 14.78C319.311 14.7267 319.524 14.6533 319.711 14.56C319.897 14.4533 320.044 14.32 320.151 14.16C320.271 14 320.331 13.82 320.331 13.62C320.317 13.2467 320.191 12.9333 319.951 12.68C319.711 12.4133 319.397 12.18 319.011 11.98C318.637 11.7667 318.231 11.56 317.791 11.36C317.364 11.1467 316.957 10.9067 316.571 10.64C316.197 10.36 315.884 10.0333 315.631 9.66C315.377 9.27333 315.251 8.8 315.251 8.24C315.251 7.84 315.351 7.48667 315.551 7.18C315.764 6.86 316.031 6.6 316.351 6.4C316.684 6.18667 317.044 6.02667 317.431 5.92C317.831 5.8 318.217 5.74 318.591 5.74C318.977 5.74 319.411 5.77333 319.891 5.84C320.371 5.89333 320.924 6 321.551 6.16L321.271 7.58ZM325.03 7.24H323.17V5.94H325.01C325.01 5.00667 325.137 4.22 325.39 3.58C325.657 2.92667 326.004 2.4 326.43 2C326.857 1.58667 327.337 1.29333 327.87 1.12C328.417 0.933333 328.964 0.84 329.51 0.84C330.67 0.84 331.937 1.27333 333.31 2.14L332.59 3.34C331.51 2.60667 330.49 2.24 329.53 2.24C328.984 2.24 328.524 2.34 328.15 2.54C327.79 2.72667 327.49 2.98667 327.25 3.32C327.024 3.65333 326.857 4.04667 326.75 4.5C326.657 4.94 326.61 5.42 326.61 5.94H329.43C329.937 5.94 330.49 5.92667 331.09 5.9C331.69 5.87333 332.424 5.82 333.29 5.74V16H331.69V7.24H326.63V16H325.03V7.24ZM336.163 1.02L337.763 0.84V16H336.163V1.02ZM340.655 7.76C340.655 7.30667 340.615 6.76 340.535 6.12L342.035 5.92L342.255 7.18C342.615 6.91333 342.969 6.68 343.315 6.48C343.662 6.28 344.035 6.10667 344.435 5.96C344.835 5.81333 345.242 5.74 345.655 5.74C346.322 5.74 346.849 5.86 347.235 6.1C347.622 6.32667 347.909 6.72 348.095 7.28C348.642 6.89333 349.209 6.54 349.795 6.22C350.395 5.9 351.015 5.74 351.655 5.74C352.149 5.74 352.569 5.80667 352.915 5.94C353.262 6.06 353.542 6.26667 353.755 6.56C353.969 6.85333 354.122 7.24 354.215 7.72C354.309 8.2 354.355 8.8 354.355 9.52V16H352.755V9.7C352.755 9.3 352.749 8.94667 352.735 8.64C352.722 8.32 352.675 8.05333 352.595 7.84C352.515 7.61333 352.382 7.44 352.195 7.32C352.022 7.2 351.769 7.14 351.435 7.14C351.129 7.14 350.835 7.18667 350.555 7.28C350.289 7.36 350.009 7.48 349.715 7.64C349.422 7.8 348.969 8.12667 348.355 8.62V16H346.755V9.7C346.755 9.3 346.749 8.94667 346.735 8.64C346.722 8.32 346.675 8.05333 346.595 7.84C346.515 7.61333 346.382 7.44 346.195 7.32C346.022 7.2 345.769 7.14 345.435 7.14C345.089 7.14 344.729 7.21333 344.355 7.36C343.982 7.50667 343.629 7.68 343.295 7.88C342.962 8.08 342.615 8.31333 342.255 8.58V16H340.655V7.76ZM362.069 2.36H363.749V14.4H369.949V16H362.069V2.36ZM373.19 3.92H368.91V2.36H379.15V3.92H374.87V16H373.19V3.92ZM382.928 14.46H385.628C386.362 14.46 387.048 14.3667 387.688 14.18C388.342 13.9933 388.908 13.6933 389.388 13.28C389.882 12.8533 390.268 12.3 390.548 11.62C390.828 10.94 390.968 10.1133 390.968 9.14C390.968 8.23333 390.842 7.45333 390.588 6.8C390.335 6.13333 389.975 5.58667 389.508 5.16C389.055 4.73333 388.495 4.42 387.828 4.22C387.175 4.00667 386.442 3.9 385.628 3.9H382.928V14.46ZM381.248 2.36H385.628C386.708 2.36 387.682 2.49333 388.548 2.76C389.428 3.02667 390.182 3.44 390.808 4C391.435 4.56 391.915 5.26667 392.248 6.12C392.595 6.97333 392.768 7.98 392.768 9.14C392.768 10.3133 392.582 11.3333 392.208 12.2C391.835 13.0533 391.328 13.7667 390.688 14.34C390.048 14.9 389.295 15.32 388.428 15.6C387.562 15.8667 386.628 16 385.628 16H381.248V2.36ZM399.355 9.18C399.355 8.24667 399.529 7.36667 399.875 6.54C400.235 5.7 400.722 4.97333 401.335 4.36C401.962 3.74667 402.682 3.26 403.495 2.9C404.322 2.54 405.209 2.36 406.155 2.36C407.089 2.36 407.969 2.54 408.795 2.9C409.635 3.26 410.362 3.74667 410.975 4.36C411.589 4.97333 412.075 5.7 412.435 6.54C412.795 7.36667 412.975 8.24667 412.975 9.18C412.975 10.1267 412.795 11.0133 412.435 11.84C412.075 12.6533 411.589 13.3733 410.975 14C410.362 14.6133 409.635 15.1 408.795 15.46C407.969 15.8067 407.089 15.98 406.155 15.98C405.209 15.98 404.322 15.8067 403.495 15.46C402.682 15.1 401.962 14.6133 401.335 14C400.722 13.3733 400.235 12.6533 399.875 11.84C399.529 11.0133 399.355 10.1267 399.355 9.18ZM400.495 9.18C400.495 9.95333 400.642 10.6867 400.935 11.38C401.242 12.06 401.649 12.66 402.155 13.18C402.675 13.6867 403.275 14.0933 403.955 14.4C404.649 14.6933 405.382 14.84 406.155 14.84C406.942 14.84 407.675 14.6933 408.355 14.4C409.049 14.0933 409.649 13.6867 410.155 13.18C410.675 12.66 411.082 12.06 411.375 11.38C411.669 10.6867 411.815 9.95333 411.815 9.18C411.815 8.39333 411.669 7.66 411.375 6.98C411.082 6.28667 410.675 5.68667 410.155 5.18C409.649 4.66 409.049 4.25333 408.355 3.96C407.675 3.66667 406.942 3.52 406.155 3.52C405.382 3.52 404.649 3.66667 403.955 3.96C403.275 4.25333 402.675 4.66 402.155 5.18C401.649 5.68667 401.242 6.28667 400.935 6.98C400.642 7.66 400.495 8.39333 400.495 9.18ZM407.855 6.56C407.402 6.46667 407.062 6.41333 406.835 6.4C406.609 6.37333 406.395 6.36 406.195 6.36C405.782 6.36 405.442 6.45333 405.175 6.64C404.909 6.81333 404.702 7.04 404.555 7.32C404.409 7.6 404.302 7.90667 404.235 8.24C404.182 8.56 404.155 8.86667 404.155 9.16C404.155 9.64 404.215 10.0533 404.335 10.4C404.469 10.7333 404.635 11.0133 404.835 11.24C405.049 11.4667 405.289 11.6333 405.555 11.74C405.822 11.8467 406.089 11.9 406.355 11.9C406.569 11.9 406.809 11.88 407.075 11.84C407.342 11.8 407.649 11.7267 407.995 11.62L408.235 12.8C407.809 12.9467 407.429 13.0467 407.095 13.1C406.775 13.14 406.475 13.16 406.195 13.16C405.689 13.16 405.215 13.0933 404.775 12.96C404.349 12.8267 403.975 12.6067 403.655 12.3C403.349 11.9933 403.102 11.58 402.915 11.06C402.742 10.54 402.655 9.9 402.655 9.14C402.655 8.39333 402.755 7.76667 402.955 7.26C403.169 6.74 403.442 6.32667 403.775 6.02C404.109 5.7 404.482 5.47333 404.895 5.34C405.322 5.19333 405.755 5.12 406.195 5.12C406.435 5.12 406.702 5.14 406.995 5.18C407.289 5.20667 407.669 5.27333 408.135 5.38L407.855 6.56ZM419.411 15.24C420.504 14.3733 421.484 13.5267 422.351 12.7C422.724 12.3533 423.084 11.9933 423.431 11.62C423.791 11.2467 424.111 10.88 424.391 10.52C424.671 10.16 424.891 9.82 425.051 9.5C425.224 9.16667 425.311 8.86667 425.311 8.6C425.311 8.17333 425.171 7.82667 424.891 7.56C424.624 7.28 424.091 7.14 423.291 7.14C422.877 7.14 422.477 7.17333 422.091 7.24C421.704 7.30667 421.357 7.37333 421.051 7.44C420.691 7.53333 420.344 7.63333 420.011 7.74L419.531 6.46C419.877 6.32667 420.271 6.20667 420.711 6.1C421.071 6.00667 421.491 5.92667 421.971 5.86C422.464 5.78 422.984 5.74 423.531 5.74C423.971 5.74 424.397 5.78667 424.811 5.88C425.237 5.96 425.611 6.10667 425.931 6.32C426.264 6.52 426.524 6.79333 426.711 7.14C426.911 7.48667 427.011 7.92667 427.011 8.46C427.011 8.76667 426.944 9.09333 426.811 9.44C426.677 9.77333 426.504 10.1133 426.291 10.46C426.091 10.7933 425.851 11.1333 425.571 11.48C425.304 11.8133 425.031 12.1333 424.751 12.44C424.097 13.16 423.351 13.8733 422.511 14.58C422.831 14.5667 423.164 14.5533 423.511 14.54C423.817 14.5267 424.164 14.52 424.551 14.52C424.951 14.5067 425.364 14.5 425.791 14.5H427.311V16H419.411V15.24ZM430.957 11C430.957 11.48 431.031 11.9467 431.177 12.4C431.324 12.84 431.544 13.2267 431.837 13.56C432.131 13.8933 432.484 14.16 432.897 14.36C433.311 14.56 433.791 14.66 434.337 14.66C434.871 14.66 435.344 14.56 435.757 14.36C436.171 14.16 436.517 13.8933 436.797 13.56C437.091 13.2267 437.311 12.84 437.457 12.4C437.604 11.9467 437.677 11.48 437.677 11C437.677 10.5067 437.604 10.04 437.457 9.6C437.311 9.14667 437.091 8.75333 436.797 8.42C436.517 8.08667 436.171 7.82667 435.757 7.64C435.344 7.44 434.871 7.34 434.337 7.34C433.791 7.34 433.311 7.44 432.897 7.64C432.484 7.82667 432.131 8.08667 431.837 8.42C431.544 8.75333 431.324 9.14667 431.177 9.6C431.031 10.04 430.957 10.5067 430.957 11ZM429.257 11C429.257 10.2667 429.384 9.58 429.637 8.94C429.891 8.3 430.244 7.74667 430.697 7.28C431.151 6.8 431.684 6.42667 432.297 6.16C432.924 5.88 433.604 5.74 434.337 5.74C435.057 5.74 435.724 5.88 436.337 6.16C436.964 6.42667 437.497 6.8 437.937 7.28C438.391 7.74667 438.744 8.3 438.997 8.94C439.251 9.58 439.377 10.2667 439.377 11C439.377 11.72 439.251 12.4 438.997 13.04C438.744 13.68 438.391 14.24 437.937 14.72C437.497 15.2 436.964 15.58 436.337 15.86C435.724 16.1267 435.057 16.26 434.337 16.26C433.604 16.26 432.924 16.1267 432.297 15.86C431.684 15.58 431.151 15.2 430.697 14.72C430.244 14.24 429.891 13.68 429.637 13.04C429.384 12.4 429.257 11.72 429.257 11ZM441.208 15.24C442.301 14.3733 443.281 13.5267 444.148 12.7C444.521 12.3533 444.881 11.9933 445.228 11.62C445.588 11.2467 445.908 10.88 446.188 10.52C446.468 10.16 446.688 9.82 446.848 9.5C447.021 9.16667 447.108 8.86667 447.108 8.6C447.108 8.17333 446.968 7.82667 446.688 7.56C446.421 7.28 445.888 7.14 445.088 7.14C444.674 7.14 444.274 7.17333 443.888 7.24C443.501 7.30667 443.154 7.37333 442.848 7.44C442.488 7.53333 442.141 7.63333 441.808 7.74L441.328 6.46C441.674 6.32667 442.068 6.20667 442.508 6.1C442.868 6.00667 443.288 5.92667 443.768 5.86C444.261 5.78 444.781 5.74 445.328 5.74C445.768 5.74 446.194 5.78667 446.608 5.88C447.034 5.96 447.408 6.10667 447.728 6.32C448.061 6.52 448.321 6.79333 448.508 7.14C448.708 7.48667 448.808 7.92667 448.808 8.46C448.808 8.76667 448.741 9.09333 448.608 9.44C448.474 9.77333 448.301 10.1133 448.088 10.46C447.888 10.7933 447.648 11.1333 447.368 11.48C447.101 11.8133 446.828 12.1333 446.548 12.44C445.894 13.16 445.148 13.8733 444.308 14.58C444.628 14.5667 444.961 14.5533 445.308 14.54C445.614 14.5267 445.961 14.52 446.348 14.52C446.748 14.5067 447.161 14.5 447.588 14.5H449.108V16H441.208V15.24ZM450.934 15.24C452.028 14.3733 453.008 13.5267 453.874 12.7C454.248 12.3533 454.608 11.9933 454.954 11.62C455.314 11.2467 455.634 10.88 455.914 10.52C456.194 10.16 456.414 9.82 456.574 9.5C456.748 9.16667 456.834 8.86667 456.834 8.6C456.834 8.17333 456.694 7.82667 456.414 7.56C456.148 7.28 455.614 7.14 454.814 7.14C454.401 7.14 454.001 7.17333 453.614 7.24C453.228 7.30667 452.881 7.37333 452.574 7.44C452.214 7.53333 451.868 7.63333 451.534 7.74L451.054 6.46C451.401 6.32667 451.794 6.20667 452.234 6.1C452.594 6.00667 453.014 5.92667 453.494 5.86C453.988 5.78 454.508 5.74 455.054 5.74C455.494 5.74 455.921 5.78667 456.334 5.88C456.761 5.96 457.134 6.10667 457.454 6.32C457.788 6.52 458.048 6.79333 458.234 7.14C458.434 7.48667 458.534 7.92667 458.534 8.46C458.534 8.76667 458.468 9.09333 458.334 9.44C458.201 9.77333 458.028 10.1133 457.814 10.46C457.614 10.7933 457.374 11.1333 457.094 11.48C456.828 11.8133 456.554 12.1333 456.274 12.44C455.621 13.16 454.874 13.8733 454.034 14.58C454.354 14.5667 454.688 14.5533 455.034 14.54C455.341 14.5267 455.688 14.52 456.074 14.52C456.474 14.5067 456.888 14.5 457.314 14.5H458.834V16H450.934V15.24ZM466.511 2.36H468.651L471.731 10.48C471.904 10.9467 472.064 11.38 472.211 11.78C472.358 12.1667 472.484 12.5133 472.591 12.82C472.724 13.1667 472.838 13.4867 472.931 13.78H472.971C473.051 13.4867 473.151 13.1667 473.271 12.82C473.378 12.5133 473.498 12.1667 473.631 11.78C473.764 11.38 473.924 10.9467 474.111 10.48L477.251 2.36H479.391L480.091 16H478.391L478.051 8.5C478.024 7.84667 478.004 7.29333 477.991 6.84C477.978 6.38667 477.971 6.01333 477.971 5.72V4.88H477.931C477.851 5.08 477.751 5.35333 477.631 5.7C477.524 5.99333 477.384 6.37333 477.211 6.84C477.051 7.29333 476.851 7.84667 476.611 8.5L473.791 16H472.091L469.251 8.5C468.998 7.86 468.791 7.31333 468.631 6.86C468.471 6.39333 468.338 6.01333 468.231 5.72C468.111 5.37333 468.018 5.09333 467.951 4.88H467.911C467.924 5.09333 467.938 5.37333 467.951 5.72C467.964 6.28 467.944 7.20667 467.891 8.5L467.491 16H465.791L466.511 2.36ZM486.599 2.36H488.679L493.359 16H491.619L490.419 12.36H484.879L483.659 16H481.919L486.599 2.36ZM489.879 10.76L487.679 3.96H487.619L485.399 10.76H489.879ZM495.506 2.36H498.866C499.599 2.36 500.266 2.42667 500.866 2.56C501.479 2.68 501.999 2.89333 502.426 3.2C502.853 3.49333 503.179 3.88667 503.406 4.38C503.633 4.87333 503.746 5.49333 503.746 6.24C503.733 7.06667 503.593 7.74 503.326 8.26C503.059 8.76667 502.733 9.18 502.346 9.5C501.959 9.80667 501.513 10.0333 501.006 10.18V10.22C501.059 10.2733 501.139 10.3733 501.246 10.52C501.366 10.6533 501.466 10.7733 501.546 10.88L505.406 16H503.426L499.466 10.58H497.186V16H495.506V2.36ZM502.046 6.52C502.046 5.96 501.973 5.50667 501.826 5.16C501.693 4.8 501.486 4.52667 501.206 4.34C500.939 4.15333 500.606 4.02667 500.206 3.96C499.806 3.89333 499.353 3.86 498.846 3.86H497.186V9.08H499.166C499.686 9.08 500.126 9.01333 500.486 8.88C500.846 8.74667 501.139 8.56667 501.366 8.34C501.593 8.1 501.759 7.82667 501.866 7.52C501.973 7.21333 502.033 6.88 502.046 6.52ZM505.551 2.36H507.251L511.171 14.4H511.191L515.051 2.36H516.751L512.211 16H510.091L505.551 2.36ZM518.865 2.36H527.225V3.9H520.545V8.26H526.745V9.76H520.545V14.46H527.425V16H518.865V2.36ZM530.155 2.36H531.835V14.4H538.035V16H530.155V2.36ZM539.395 14.82C539.395 14.5 539.508 14.2267 539.735 14C539.962 13.76 540.242 13.64 540.575 13.64C540.922 13.64 541.215 13.76 541.455 14C541.695 14.2267 541.815 14.5 541.815 14.82C541.815 15.1533 541.695 15.4333 541.455 15.66C541.215 15.8867 540.922 16 540.575 16C540.242 16 539.962 15.8867 539.735 15.66C539.508 15.4333 539.395 15.1533 539.395 14.82ZM549.139 2.36H552.499C553.232 2.36 553.899 2.42667 554.499 2.56C555.112 2.68 555.632 2.89333 556.059 3.2C556.486 3.49333 556.812 3.88667 557.039 4.38C557.266 4.87333 557.379 5.49333 557.379 6.24C557.366 7.06667 557.226 7.74 556.959 8.26C556.692 8.76667 556.366 9.18 555.979 9.5C555.592 9.80667 555.146 10.0333 554.639 10.18V10.22C554.692 10.2733 554.772 10.3733 554.879 10.52C554.999 10.6533 555.099 10.7733 555.179 10.88L559.039 16H557.059L553.099 10.58H550.819V16H549.139V2.36ZM555.679 6.52C555.679 5.96 555.606 5.50667 555.459 5.16C555.326 4.8 555.119 4.52667 554.839 4.34C554.572 4.15333 554.239 4.02667 553.839 3.96C553.439 3.89333 552.986 3.86 552.479 3.86H550.819V9.08H552.799C553.319 9.08 553.759 9.01333 554.119 8.88C554.479 8.74667 554.772 8.56667 554.999 8.34C555.226 8.1 555.392 7.82667 555.499 7.52C555.606 7.21333 555.666 6.88 555.679 6.52ZM567.665 15.76C567.358 15.8533 567.038 15.9333 566.705 16C566.385 16.0667 566.025 16.1267 565.625 16.18C565.238 16.2333 564.832 16.26 564.405 16.26C563.738 16.26 563.118 16.1667 562.545 15.98C561.972 15.7933 561.472 15.4933 561.045 15.08C560.618 14.6667 560.278 14.1333 560.025 13.48C559.785 12.8133 559.665 12 559.665 11.04C559.665 10.1733 559.785 9.41333 560.025 8.76C560.265 8.09333 560.592 7.54 561.005 7.1C561.432 6.64667 561.925 6.30667 562.485 6.08C563.058 5.85333 563.678 5.74 564.345 5.74C564.998 5.74 565.565 5.86667 566.045 6.12C566.525 6.37333 566.918 6.72 567.225 7.16C567.545 7.58667 567.778 8.09333 567.925 8.68C568.085 9.25333 568.165 9.86 568.165 10.5L567.865 11.38H561.405C561.405 11.7933 561.458 12.2067 561.565 12.62C561.672 13.0333 561.852 13.4067 562.105 13.74C562.372 14.0733 562.712 14.3467 563.125 14.56C563.552 14.76 564.078 14.86 564.705 14.86C565.105 14.86 565.472 14.84 565.805 14.8C566.138 14.7467 566.425 14.6933 566.665 14.64C566.918 14.5733 567.152 14.5 567.365 14.42L567.665 15.76ZM566.505 10.1C566.505 10.0067 566.485 9.8 566.445 9.48C566.405 9.16 566.312 8.82667 566.165 8.48C566.018 8.13333 565.792 7.82667 565.485 7.56C565.178 7.28 564.772 7.14 564.265 7.14C563.705 7.14 563.245 7.26 562.885 7.5C562.525 7.72667 562.238 8 562.025 8.32C561.812 8.64 561.665 8.96667 561.585 9.3C561.505 9.63333 561.465 9.9 561.465 10.1H566.505ZM575.782 7.58C575.222 7.40667 574.722 7.29333 574.282 7.24C573.856 7.17333 573.462 7.14 573.102 7.14C572.636 7.14 572.242 7.25333 571.922 7.48C571.616 7.70667 571.462 8 571.462 8.36C571.476 8.68 571.616 8.95333 571.882 9.18C572.149 9.40667 572.456 9.61333 572.802 9.8C573.162 9.97333 573.556 10.1667 573.982 10.38C574.422 10.5933 574.829 10.8333 575.202 11.1C575.589 11.3667 575.902 11.6867 576.142 12.06C576.382 12.4333 576.509 12.88 576.522 13.4C576.509 13.96 576.382 14.4267 576.142 14.8C575.916 15.16 575.616 15.4533 575.242 15.68C574.882 15.8933 574.489 16.04 574.062 16.12C573.636 16.2133 573.236 16.26 572.862 16.26C572.382 16.26 571.882 16.2333 571.362 16.18C570.856 16.1267 570.309 16.0133 569.722 15.84L570.022 14.4C570.622 14.56 571.169 14.68 571.662 14.76C572.156 14.8267 572.562 14.86 572.882 14.86C573.122 14.86 573.356 14.8333 573.582 14.78C573.822 14.7267 574.036 14.6533 574.222 14.56C574.409 14.4533 574.556 14.32 574.662 14.16C574.782 14 574.842 13.82 574.842 13.62C574.829 13.2467 574.702 12.9333 574.462 12.68C574.222 12.4133 573.909 12.18 573.522 11.98C573.149 11.7667 572.742 11.56 572.302 11.36C571.876 11.1467 571.469 10.9067 571.082 10.64C570.709 10.36 570.396 10.0333 570.142 9.66C569.889 9.27333 569.762 8.8 569.762 8.24C569.762 7.84 569.862 7.48667 570.062 7.18C570.276 6.86 570.542 6.6 570.862 6.4C571.196 6.18667 571.556 6.02667 571.942 5.92C572.342 5.8 572.729 5.74 573.102 5.74C573.489 5.74 573.922 5.77333 574.402 5.84C574.882 5.89333 575.436 6 576.062 6.16L575.782 7.58ZM586.122 15.76C585.816 15.8533 585.496 15.9333 585.162 16C584.842 16.0667 584.482 16.1267 584.082 16.18C583.696 16.2333 583.289 16.26 582.862 16.26C582.196 16.26 581.576 16.1667 581.002 15.98C580.429 15.7933 579.929 15.4933 579.502 15.08C579.076 14.6667 578.736 14.1333 578.482 13.48C578.242 12.8133 578.122 12 578.122 11.04C578.122 10.1733 578.242 9.41333 578.482 8.76C578.722 8.09333 579.049 7.54 579.462 7.1C579.889 6.64667 580.382 6.30667 580.942 6.08C581.516 5.85333 582.136 5.74 582.802 5.74C583.456 5.74 584.022 5.86667 584.502 6.12C584.982 6.37333 585.376 6.72 585.682 7.16C586.002 7.58667 586.236 8.09333 586.382 8.68C586.542 9.25333 586.622 9.86 586.622 10.5L586.322 11.38H579.862C579.862 11.7933 579.916 12.2067 580.022 12.62C580.129 13.0333 580.309 13.4067 580.562 13.74C580.829 14.0733 581.169 14.3467 581.582 14.56C582.009 14.76 582.536 14.86 583.162 14.86C583.562 14.86 583.929 14.84 584.262 14.8C584.596 14.7467 584.882 14.6933 585.122 14.64C585.376 14.5733 585.609 14.5 585.822 14.42L586.122 15.76ZM584.962 10.1C584.962 10.0067 584.942 9.8 584.902 9.48C584.862 9.16 584.769 8.82667 584.622 8.48C584.476 8.13333 584.249 7.82667 583.942 7.56C583.636 7.28 583.229 7.14 582.722 7.14C582.162 7.14 581.702 7.26 581.342 7.5C580.982 7.72667 580.696 8 580.482 8.32C580.269 8.64 580.122 8.96667 580.042 9.3C579.962 9.63333 579.922 9.9 579.922 10.1H584.962ZM588.819 7.56C588.819 7.25333 588.786 6.77333 588.719 6.12L590.199 5.92L590.359 7.38H590.379C590.619 7.07333 590.853 6.80667 591.079 6.58C591.306 6.35333 591.539 6.16 591.779 6C592.033 5.82667 592.273 5.74 592.499 5.74C592.806 5.72667 593.233 5.76 593.779 5.84L593.419 7.38C592.979 7.3 592.673 7.26667 592.499 7.28C592.273 7.28 592.033 7.38667 591.779 7.6C591.526 7.81333 591.306 8.04 591.119 8.28C590.879 8.57333 590.646 8.90667 590.419 9.28V16H588.819V7.56ZM594.298 5.94H596.058L598.498 13.04L598.938 14.62H598.958L599.418 13.04L602.018 5.94H603.698L599.798 16H597.998L594.298 5.94ZM610.825 11.38C610.558 11.3933 610.305 11.4067 610.065 11.42C609.825 11.4333 609.585 11.4533 609.345 11.48C609.118 11.4933 608.912 11.5133 608.725 11.54C607.765 11.66 607.085 11.8733 606.685 12.18C606.285 12.4733 606.085 12.9 606.085 13.46C606.085 13.9267 606.225 14.28 606.505 14.52C606.798 14.7467 607.178 14.86 607.645 14.86C608.285 14.86 608.852 14.7533 609.345 14.54C609.852 14.3133 610.345 14.02 610.825 13.66V11.38ZM610.805 15.06C610.178 15.42 609.592 15.7133 609.045 15.94C608.512 16.1533 607.932 16.26 607.305 16.26C606.412 16.26 605.698 16.0467 605.165 15.62C604.645 15.18 604.385 14.46 604.385 13.46C604.385 12.94 604.518 12.4867 604.785 12.1C605.052 11.7133 605.398 11.3933 605.825 11.14C606.265 10.8733 606.758 10.6667 607.305 10.52C607.852 10.3733 608.412 10.28 608.985 10.24C609.225 10.2133 609.538 10.1933 609.925 10.18C610.312 10.1533 610.612 10.1333 610.825 10.12C610.825 9.65333 610.812 9.24 610.785 8.88C610.758 8.50667 610.678 8.19333 610.545 7.94C610.412 7.67333 610.212 7.47333 609.945 7.34C609.692 7.20667 609.325 7.14 608.845 7.14C608.458 7.14 608.085 7.16667 607.725 7.22C607.365 7.26 607.045 7.30667 606.765 7.36C606.432 7.42667 606.125 7.5 605.845 7.58L605.525 6.2C605.858 6.12 606.218 6.04667 606.605 5.98C606.938 5.91333 607.325 5.86 607.765 5.82C608.205 5.76667 608.678 5.74 609.185 5.74C609.865 5.74 610.412 5.84 610.825 6.04C611.252 6.24 611.578 6.51333 611.805 6.86C612.045 7.19333 612.205 7.58 612.285 8.02C612.378 8.44667 612.425 8.9 612.425 9.38V14.18C612.425 14.3667 612.425 14.5667 612.425 14.78C612.438 14.98 612.452 15.18 612.465 15.38C612.492 15.58 612.518 15.7867 612.545 16L611.005 16.16L610.805 15.06ZM621.525 7.44C621.045 7.30667 620.671 7.22667 620.405 7.2C620.138 7.16 619.865 7.14 619.585 7.14C619.025 7.14 618.545 7.24 618.145 7.44C617.745 7.64 617.411 7.92 617.145 8.28C616.891 8.62667 616.705 9.03333 616.585 9.5C616.465 9.95333 616.405 10.44 616.405 10.96C616.405 11.4267 616.451 11.8933 616.545 12.36C616.651 12.8267 616.811 13.2467 617.025 13.62C617.238 13.9933 617.498 14.2933 617.805 14.52C618.111 14.7467 618.478 14.86 618.905 14.86C619.198 14.86 619.498 14.8067 619.805 14.7C620.125 14.5933 620.418 14.4733 620.685 14.34C620.951 14.1933 621.231 14.0133 621.525 13.8V7.44ZM621.545 15.2C621.238 15.4133 620.938 15.5933 620.645 15.74C620.365 15.8733 620.051 15.9933 619.705 16.1C619.371 16.2067 619.045 16.26 618.725 16.26C617.471 16.26 616.485 15.82 615.765 14.94C615.058 14.0467 614.705 12.7467 614.705 11.04C614.705 10.0267 614.865 9.18 615.185 8.5C615.518 7.82 615.931 7.28 616.425 6.88C616.918 6.46667 617.445 6.17333 618.005 6C618.578 5.82667 619.105 5.74 619.585 5.74C619.825 5.74 620.078 5.76 620.345 5.8C620.611 5.82667 621.005 5.90667 621.525 6.04V1.02L623.125 0.84V14.18C623.125 14.3667 623.125 14.5667 623.125 14.78C623.138 14.98 623.151 15.18 623.165 15.38C623.191 15.58 623.218 15.7867 623.245 16L621.705 16.16L621.545 15.2ZM627.166 11.02C627.166 12.3133 627.453 13.28 628.026 13.92C628.613 14.5467 629.399 14.86 630.386 14.86C631.359 14.86 632.119 14.5467 632.666 13.92C633.213 13.2933 633.486 12.3533 633.486 11.1C633.486 9.76667 633.193 8.77333 632.606 8.12C632.033 7.46667 631.246 7.14 630.246 7.14C629.246 7.14 628.479 7.46667 627.946 8.12C627.426 8.76 627.166 9.72667 627.166 11.02ZM625.466 11C625.466 9.98667 625.626 9.14667 625.946 8.48C626.266 7.8 626.673 7.26 627.166 6.86C627.659 6.44667 628.186 6.16 628.746 6C629.319 5.82667 629.859 5.74 630.366 5.74C630.846 5.74 631.366 5.82 631.926 5.98C632.499 6.12667 633.026 6.4 633.506 6.8C633.986 7.18667 634.386 7.71333 634.706 8.38C635.026 9.03333 635.186 9.86667 635.186 10.88C635.186 11.9333 635.019 12.8067 634.686 13.5C634.366 14.1933 633.959 14.7467 633.466 15.16C632.973 15.56 632.439 15.84 631.866 16C631.293 16.1733 630.759 16.26 630.266 16.26C629.759 16.26 629.226 16.18 628.666 16.02C628.106 15.86 627.586 15.5867 627.106 15.2C626.639 14.8 626.246 14.26 625.926 13.58C625.619 12.9 625.466 12.04 625.466 11ZM642.95 7.58C642.39 7.40667 641.89 7.29333 641.45 7.24C641.024 7.17333 640.63 7.14 640.27 7.14C639.804 7.14 639.41 7.25333 639.09 7.48C638.784 7.70667 638.63 8 638.63 8.36C638.644 8.68 638.784 8.95333 639.05 9.18C639.317 9.40667 639.624 9.61333 639.97 9.8C640.33 9.97333 640.724 10.1667 641.15 10.38C641.59 10.5933 641.997 10.8333 642.37 11.1C642.757 11.3667 643.07 11.6867 643.31 12.06C643.55 12.4333 643.677 12.88 643.69 13.4C643.677 13.96 643.55 14.4267 643.31 14.8C643.084 15.16 642.784 15.4533 642.41 15.68C642.05 15.8933 641.657 16.04 641.23 16.12C640.804 16.2133 640.404 16.26 640.03 16.26C639.55 16.26 639.05 16.2333 638.53 16.18C638.024 16.1267 637.477 16.0133 636.89 15.84L637.19 14.4C637.79 14.56 638.337 14.68 638.83 14.76C639.324 14.8267 639.73 14.86 640.05 14.86C640.29 14.86 640.524 14.8333 640.75 14.78C640.99 14.7267 641.204 14.6533 641.39 14.56C641.577 14.4533 641.724 14.32 641.83 14.16C641.95 14 642.01 13.82 642.01 13.62C641.997 13.2467 641.87 12.9333 641.63 12.68C641.39 12.4133 641.077 12.18 640.69 11.98C640.317 11.7667 639.91 11.56 639.47 11.36C639.044 11.1467 638.637 10.9067 638.25 10.64C637.877 10.36 637.564 10.0333 637.31 9.66C637.057 9.27333 636.93 8.8 636.93 8.24C636.93 7.84 637.03 7.48667 637.23 7.18C637.444 6.86 637.71 6.6 638.03 6.4C638.364 6.18667 638.724 6.02667 639.11 5.92C639.51 5.8 639.897 5.74 640.27 5.74C640.657 5.74 641.09 5.77333 641.57 5.84C642.05 5.89333 642.604 6 643.23 6.16L642.95 7.58ZM652.76 2.94V5.94H655.66V7.24H652.76V12.58C652.76 13.02 652.767 13.3867 652.78 13.68C652.807 13.9733 652.854 14.2067 652.92 14.38C652.987 14.5533 653.08 14.68 653.2 14.76C653.32 14.8267 653.474 14.86 653.66 14.86C654.167 14.8467 654.754 14.66 655.42 14.3L655.9 15.52C655.46 15.8133 655.047 16.0067 654.66 16.1C654.287 16.2067 653.914 16.26 653.54 16.26C652.66 16.26 652.04 16.0133 651.68 15.52C651.334 15.0133 651.16 14.18 651.16 13.02V7.24H649.32V5.94H651.16V3.14L652.76 2.94ZM658.768 11.02C658.768 12.3133 659.054 13.28 659.628 13.92C660.214 14.5467 661.001 14.86 661.988 14.86C662.961 14.86 663.721 14.5467 664.268 13.92C664.814 13.2933 665.088 12.3533 665.088 11.1C665.088 9.76667 664.794 8.77333 664.208 8.12C663.634 7.46667 662.848 7.14 661.848 7.14C660.848 7.14 660.081 7.46667 659.548 8.12C659.028 8.76 658.768 9.72667 658.768 11.02ZM657.068 11C657.068 9.98667 657.228 9.14667 657.548 8.48C657.868 7.8 658.274 7.26 658.768 6.86C659.261 6.44667 659.788 6.16 660.348 6C660.921 5.82667 661.461 5.74 661.968 5.74C662.448 5.74 662.968 5.82 663.528 5.98C664.101 6.12667 664.628 6.4 665.108 6.8C665.588 7.18667 665.988 7.71333 666.308 8.38C666.628 9.03333 666.788 9.86667 666.788 10.88C666.788 11.9333 666.621 12.8067 666.287 13.5C665.968 14.1933 665.561 14.7467 665.068 15.16C664.574 15.56 664.041 15.84 663.468 16C662.894 16.1733 662.361 16.26 661.868 16.26C661.361 16.26 660.828 16.18 660.268 16.02C659.708 15.86 659.188 15.5867 658.708 15.2C658.241 14.8 657.848 14.26 657.528 13.58C657.221 12.9 657.068 12.04 657.068 11ZM675.392 7.44C674.912 7.30667 674.539 7.22667 674.272 7.2C674.005 7.16 673.732 7.14 673.452 7.14C672.892 7.14 672.412 7.24 672.012 7.44C671.612 7.64 671.279 7.92 671.012 8.28C670.759 8.62667 670.572 9.03333 670.452 9.5C670.332 9.95333 670.272 10.44 670.272 10.96C670.272 11.4267 670.319 11.8933 670.412 12.36C670.519 12.8267 670.679 13.2467 670.892 13.62C671.105 13.9933 671.365 14.2933 671.672 14.52C671.979 14.7467 672.345 14.86 672.772 14.86C673.065 14.86 673.365 14.8067 673.672 14.7C673.992 14.5933 674.285 14.4733 674.552 14.34C674.819 14.1933 675.099 14.0133 675.392 13.8V7.44ZM675.412 15.2C675.105 15.4133 674.805 15.5933 674.512 15.74C674.232 15.8733 673.919 15.9933 673.572 16.1C673.239 16.2067 672.912 16.26 672.592 16.26C671.339 16.26 670.352 15.82 669.632 14.94C668.925 14.0467 668.572 12.7467 668.572 11.04C668.572 10.0267 668.732 9.18 669.052 8.5C669.385 7.82 669.799 7.28 670.292 6.88C670.785 6.46667 671.312 6.17333 671.872 6C672.445 5.82667 672.972 5.74 673.452 5.74C673.692 5.74 673.945 5.76 674.212 5.8C674.479 5.82667 674.872 5.90667 675.392 6.04V1.02L676.992 0.84V14.18C676.992 14.3667 676.992 14.5667 676.992 14.78C677.005 14.98 677.019 15.18 677.032 15.38C677.059 15.58 677.085 15.7867 677.112 16L675.572 16.16L675.412 15.2ZM681.033 11.02C681.033 12.3133 681.32 13.28 681.893 13.92C682.48 14.5467 683.266 14.86 684.253 14.86C685.226 14.86 685.986 14.5467 686.533 13.92C687.08 13.2933 687.353 12.3533 687.353 11.1C687.353 9.76667 687.06 8.77333 686.473 8.12C685.9 7.46667 685.113 7.14 684.113 7.14C683.113 7.14 682.346 7.46667 681.813 8.12C681.293 8.76 681.033 9.72667 681.033 11.02ZM679.333 11C679.333 9.98667 679.493 9.14667 679.813 8.48C680.133 7.8 680.54 7.26 681.033 6.86C681.526 6.44667 682.053 6.16 682.613 6C683.186 5.82667 683.726 5.74 684.233 5.74C684.713 5.74 685.233 5.82 685.793 5.98C686.366 6.12667 686.893 6.4 687.373 6.8C687.853 7.18667 688.253 7.71333 688.573 8.38C688.893 9.03333 689.053 9.86667 689.053 10.88C689.053 11.9333 688.886 12.8067 688.553 13.5C688.233 14.1933 687.826 14.7467 687.333 15.16C686.84 15.56 686.306 15.84 685.733 16C685.16 16.1733 684.626 16.26 684.133 16.26C683.626 16.26 683.093 16.18 682.533 16.02C681.973 15.86 681.453 15.5867 680.973 15.2C680.506 14.8 680.113 14.26 679.793 13.58C679.486 12.9 679.333 12.04 679.333 11ZM696.818 7.58C696.258 7.40667 695.758 7.29333 695.318 7.24C694.891 7.17333 694.498 7.14 694.138 7.14C693.671 7.14 693.278 7.25333 692.958 7.48C692.651 7.70667 692.498 8 692.498 8.36C692.511 8.68 692.651 8.95333 692.918 9.18C693.184 9.40667 693.491 9.61333 693.838 9.8C694.198 9.97333 694.591 10.1667 695.018 10.38C695.458 10.5933 695.864 10.8333 696.238 11.1C696.624 11.3667 696.938 11.6867 697.178 12.06C697.418 12.4333 697.544 12.88 697.558 13.4C697.544 13.96 697.418 14.4267 697.178 14.8C696.951 15.16 696.651 15.4533 696.278 15.68C695.918 15.8933 695.524 16.04 695.098 16.12C694.671 16.2133 694.271 16.26 693.898 16.26C693.418 16.26 692.918 16.2333 692.398 16.18C691.891 16.1267 691.344 16.0133 690.758 15.84L691.058 14.4C691.658 14.56 692.204 14.68 692.698 14.76C693.191 14.8267 693.598 14.86 693.918 14.86C694.158 14.86 694.391 14.8333 694.618 14.78C694.858 14.7267 695.071 14.6533 695.258 14.56C695.444 14.4533 695.591 14.32 695.698 14.16C695.818 14 695.878 13.82 695.878 13.62C695.864 13.2467 695.738 12.9333 695.498 12.68C695.258 12.4133 694.944 12.18 694.558 11.98C694.184 11.7667 693.778 11.56 693.338 11.36C692.911 11.1467 692.504 10.9067 692.118 10.64C691.744 10.36 691.431 10.0333 691.178 9.66C690.924 9.27333 690.798 8.8 690.798 8.24C690.798 7.84 690.898 7.48667 691.098 7.18C691.311 6.86 691.578 6.6 691.898 6.4C692.231 6.18667 692.591 6.02667 692.978 5.92C693.378 5.8 693.764 5.74 694.138 5.74C694.524 5.74 694.958 5.77333 695.438 5.84C695.918 5.89333 696.471 6 697.098 6.16L696.818 7.58ZM705.428 11.02C705.428 12.3133 705.714 13.28 706.288 13.92C706.874 14.5467 707.661 14.86 708.648 14.86C709.621 14.86 710.381 14.5467 710.928 13.92C711.474 13.2933 711.748 12.3533 711.748 11.1C711.748 9.76667 711.454 8.77333 710.868 8.12C710.294 7.46667 709.508 7.14 708.508 7.14C707.508 7.14 706.741 7.46667 706.208 8.12C705.688 8.76 705.428 9.72667 705.428 11.02ZM703.728 11C703.728 9.98667 703.888 9.14667 704.208 8.48C704.528 7.8 704.934 7.26 705.428 6.86C705.921 6.44667 706.448 6.16 707.008 6C707.581 5.82667 708.121 5.74 708.628 5.74C709.108 5.74 709.628 5.82 710.188 5.98C710.761 6.12667 711.288 6.4 711.768 6.8C712.248 7.18667 712.648 7.71333 712.968 8.38C713.288 9.03333 713.448 9.86667 713.448 10.88C713.448 11.9333 713.281 12.8067 712.948 13.5C712.628 14.1933 712.221 14.7467 711.728 15.16C711.234 15.56 710.701 15.84 710.128 16C709.554 16.1733 709.021 16.26 708.528 16.26C708.021 16.26 707.488 16.18 706.928 16.02C706.368 15.86 705.848 15.5867 705.368 15.2C704.901 14.8 704.508 14.26 704.188 13.58C703.881 12.9 703.728 12.04 703.728 11ZM721.212 7.58C720.652 7.40667 720.152 7.29333 719.712 7.24C719.285 7.17333 718.892 7.14 718.532 7.14C718.065 7.14 717.672 7.25333 717.352 7.48C717.045 7.70667 716.892 8 716.892 8.36C716.905 8.68 717.045 8.95333 717.312 9.18C717.579 9.40667 717.885 9.61333 718.232 9.8C718.592 9.97333 718.985 10.1667 719.412 10.38C719.852 10.5933 720.259 10.8333 720.632 11.1C721.019 11.3667 721.332 11.6867 721.572 12.06C721.812 12.4333 721.939 12.88 721.952 13.4C721.939 13.96 721.812 14.4267 721.572 14.8C721.345 15.16 721.045 15.4533 720.672 15.68C720.312 15.8933 719.919 16.04 719.492 16.12C719.065 16.2133 718.665 16.26 718.292 16.26C717.812 16.26 717.312 16.2333 716.792 16.18C716.285 16.1267 715.739 16.0133 715.152 15.84L715.452 14.4C716.052 14.56 716.599 14.68 717.092 14.76C717.585 14.8267 717.992 14.86 718.312 14.86C718.552 14.86 718.785 14.8333 719.012 14.78C719.252 14.7267 719.465 14.6533 719.652 14.56C719.839 14.4533 719.985 14.32 720.092 14.16C720.212 14 720.272 13.82 720.272 13.62C720.259 13.2467 720.132 12.9333 719.892 12.68C719.652 12.4133 719.339 12.18 718.952 11.98C718.579 11.7667 718.172 11.56 717.732 11.36C717.305 11.1467 716.899 10.9067 716.512 10.64C716.139 10.36 715.825 10.0333 715.572 9.66C715.319 9.27333 715.192 8.8 715.192 8.24C715.192 7.84 715.292 7.48667 715.492 7.18C715.705 6.86 715.972 6.6 716.292 6.4C716.625 6.18667 716.985 6.02667 717.372 5.92C717.772 5.8 718.159 5.74 718.532 5.74C718.919 5.74 719.352 5.77333 719.832 5.84C720.312 5.89333 720.865 6 721.492 6.16L721.212 7.58ZM734.962 7.44C734.482 7.30667 734.109 7.22667 733.842 7.2C733.576 7.16 733.302 7.14 733.022 7.14C732.462 7.14 731.982 7.24 731.582 7.44C731.182 7.64 730.849 7.92 730.582 8.28C730.329 8.62667 730.142 9.03333 730.022 9.5C729.902 9.95333 729.842 10.44 729.842 10.96C729.842 11.4267 729.889 11.8933 729.982 12.36C730.089 12.8267 730.249 13.2467 730.462 13.62C730.676 13.9933 730.936 14.2933 731.242 14.52C731.549 14.7467 731.916 14.86 732.342 14.86C732.636 14.86 732.936 14.8067 733.242 14.7C733.562 14.5933 733.856 14.4733 734.122 14.34C734.389 14.1933 734.669 14.0133 734.962 13.8V7.44ZM734.982 15.2C734.676 15.4133 734.376 15.5933 734.082 15.74C733.802 15.8733 733.489 15.9933 733.142 16.1C732.809 16.2067 732.482 16.26 732.162 16.26C730.909 16.26 729.922 15.82 729.202 14.94C728.496 14.0467 728.142 12.7467 728.142 11.04C728.142 10.0267 728.302 9.18 728.622 8.5C728.956 7.82 729.369 7.28 729.862 6.88C730.356 6.46667 730.882 6.17333 731.442 6C732.016 5.82667 732.542 5.74 733.022 5.74C733.262 5.74 733.516 5.76 733.782 5.8C734.049 5.82667 734.442 5.90667 734.962 6.04V1.02L736.562 0.84V14.18C736.562 14.3667 736.562 14.5667 736.562 14.78C736.576 14.98 736.589 15.18 736.602 15.38C736.629 15.58 736.656 15.7867 736.682 16L735.142 16.16L734.982 15.2ZM739.463 5.92L741.063 5.74V16H739.463V5.92ZM739.203 3.06C739.203 2.75333 739.303 2.5 739.503 2.3C739.717 2.08667 739.977 1.98 740.283 1.98C740.603 1.98 740.87 2.08667 741.083 2.3C741.31 2.5 741.423 2.75333 741.423 3.06C741.423 3.36667 741.31 3.62667 741.083 3.84C740.87 4.04 740.603 4.14 740.283 4.14C739.977 4.14 739.717 4.04 739.503 3.84C739.303 3.62667 739.203 3.36667 739.203 3.06ZM743.956 7.56C743.956 7.25333 743.923 6.77333 743.856 6.12L745.336 5.92L745.496 7.38H745.516C745.756 7.07333 745.989 6.80667 746.216 6.58C746.443 6.35333 746.676 6.16 746.916 6C747.169 5.82667 747.409 5.74 747.636 5.74C747.943 5.72667 748.369 5.76 748.916 5.84L748.556 7.38C748.116 7.3 747.809 7.26667 747.636 7.28C747.409 7.28 747.169 7.38667 746.916 7.6C746.663 7.81333 746.443 8.04 746.256 8.28C746.016 8.57333 745.783 8.90667 745.556 9.28V16H743.956V7.56ZM757.821 15.76C757.515 15.8533 757.195 15.9333 756.861 16C756.541 16.0667 756.181 16.1267 755.781 16.18C755.395 16.2333 754.988 16.26 754.561 16.26C753.895 16.26 753.275 16.1667 752.701 15.98C752.128 15.7933 751.628 15.4933 751.201 15.08C750.775 14.6667 750.435 14.1333 750.181 13.48C749.941 12.8133 749.821 12 749.821 11.04C749.821 10.1733 749.941 9.41333 750.181 8.76C750.421 8.09333 750.748 7.54 751.161 7.1C751.588 6.64667 752.081 6.30667 752.641 6.08C753.215 5.85333 753.835 5.74 754.501 5.74C755.155 5.74 755.721 5.86667 756.201 6.12C756.681 6.37333 757.075 6.72 757.381 7.16C757.701 7.58667 757.935 8.09333 758.081 8.68C758.241 9.25333 758.321 9.86 758.321 10.5L758.021 11.38H751.561C751.561 11.7933 751.615 12.2067 751.721 12.62C751.828 13.0333 752.008 13.4067 752.261 13.74C752.528 14.0733 752.868 14.3467 753.281 14.56C753.708 14.76 754.235 14.86 754.861 14.86C755.261 14.86 755.628 14.84 755.961 14.8C756.295 14.7467 756.581 14.6933 756.821 14.64C757.075 14.5733 757.308 14.5 757.521 14.42L757.821 15.76ZM756.661 10.1C756.661 10.0067 756.641 9.8 756.601 9.48C756.561 9.16 756.468 8.82667 756.321 8.48C756.175 8.13333 755.948 7.82667 755.641 7.56C755.335 7.28 754.928 7.14 754.421 7.14C753.861 7.14 753.401 7.26 753.041 7.5C752.681 7.72667 752.395 8 752.181 8.32C751.968 8.64 751.821 8.96667 751.741 9.3C751.661 9.63333 751.621 9.9 751.621 10.1H756.661ZM760.499 5.92L762.099 5.74V16H760.499V5.92ZM760.239 3.06C760.239 2.75333 760.339 2.5 760.539 2.3C760.752 2.08667 761.012 1.98 761.319 1.98C761.639 1.98 761.905 2.08667 762.119 2.3C762.345 2.5 762.459 2.75333 762.459 3.06C762.459 3.36667 762.345 3.62667 762.119 3.84C761.905 4.04 761.639 4.14 761.319 4.14C761.012 4.14 760.752 4.04 760.539 3.84C760.339 3.62667 760.239 3.36667 760.239 3.06ZM767.311 2.94V5.94H770.211V7.24H767.311V12.58C767.311 13.02 767.318 13.3867 767.331 13.68C767.358 13.9733 767.405 14.2067 767.471 14.38C767.538 14.5533 767.631 14.68 767.751 14.76C767.871 14.8267 768.025 14.86 768.211 14.86C768.718 14.8467 769.305 14.66 769.971 14.3L770.451 15.52C770.011 15.8133 769.598 16.0067 769.211 16.1C768.838 16.2067 768.465 16.26 768.091 16.26C767.211 16.26 766.591 16.0133 766.231 15.52C765.885 15.0133 765.711 14.18 765.711 13.02V7.24H763.871V5.94H765.711V3.14L767.311 2.94ZM773.318 11.02C773.318 12.3133 773.605 13.28 774.178 13.92C774.765 14.5467 775.552 14.86 776.538 14.86C777.512 14.86 778.272 14.5467 778.818 13.92C779.365 13.2933 779.638 12.3533 779.638 11.1C779.638 9.76667 779.345 8.77333 778.758 8.12C778.185 7.46667 777.398 7.14 776.398 7.14C775.398 7.14 774.632 7.46667 774.098 8.12C773.578 8.76 773.318 9.72667 773.318 11.02ZM771.618 11C771.618 9.98667 771.778 9.14667 772.098 8.48C772.418 7.8 772.825 7.26 773.318 6.86C773.812 6.44667 774.338 6.16 774.898 6C775.472 5.82667 776.012 5.74 776.518 5.74C776.998 5.74 777.518 5.82 778.078 5.98C778.652 6.12667 779.178 6.4 779.658 6.8C780.138 7.18667 780.538 7.71333 780.858 8.38C781.178 9.03333 781.338 9.86667 781.338 10.88C781.338 11.9333 781.172 12.8067 780.838 13.5C780.518 14.1933 780.112 14.7467 779.618 15.16C779.125 15.56 778.592 15.84 778.018 16C777.445 16.1733 776.912 16.26 776.418 16.26C775.912 16.26 775.378 16.18 774.818 16.02C774.258 15.86 773.738 15.5867 773.258 15.2C772.792 14.8 772.398 14.26 772.078 13.58C771.772 12.9 771.618 12.04 771.618 11ZM789.103 7.58C788.543 7.40667 788.043 7.29333 787.603 7.24C787.176 7.17333 786.783 7.14 786.423 7.14C785.956 7.14 785.563 7.25333 785.243 7.48C784.936 7.70667 784.783 8 784.783 8.36C784.796 8.68 784.936 8.95333 785.203 9.18C785.469 9.40667 785.776 9.61333 786.123 9.8C786.483 9.97333 786.876 10.1667 787.303 10.38C787.743 10.5933 788.149 10.8333 788.523 11.1C788.909 11.3667 789.223 11.6867 789.463 12.06C789.703 12.4333 789.829 12.88 789.843 13.4C789.829 13.96 789.703 14.4267 789.463 14.8C789.236 15.16 788.936 15.4533 788.563 15.68C788.203 15.8933 787.809 16.04 787.383 16.12C786.956 16.2133 786.556 16.26 786.183 16.26C785.703 16.26 785.203 16.2333 784.683 16.18C784.176 16.1267 783.629 16.0133 783.043 15.84L783.343 14.4C783.943 14.56 784.489 14.68 784.983 14.76C785.476 14.8267 785.883 14.86 786.203 14.86C786.443 14.86 786.676 14.8333 786.903 14.78C787.143 14.7267 787.356 14.6533 787.543 14.56C787.729 14.4533 787.876 14.32 787.983 14.16C788.103 14 788.163 13.82 788.163 13.62C788.149 13.2467 788.023 12.9333 787.783 12.68C787.543 12.4133 787.229 12.18 786.843 11.98C786.469 11.7667 786.063 11.56 785.623 11.36C785.196 11.1467 784.789 10.9067 784.403 10.64C784.029 10.36 783.716 10.0333 783.463 9.66C783.209 9.27333 783.083 8.8 783.083 8.24C783.083 7.84 783.183 7.48667 783.383 7.18C783.596 6.86 783.863 6.6 784.183 6.4C784.516 6.18667 784.876 6.02667 785.263 5.92C785.663 5.8 786.049 5.74 786.423 5.74C786.809 5.74 787.243 5.77333 787.723 5.84C788.203 5.89333 788.756 6 789.383 6.16L789.103 7.58ZM791.983 13.4H793.683L792.563 18.56L791.303 18.32L791.983 13.4ZM802.792 14.46H805.492C806.225 14.46 806.912 14.3667 807.552 14.18C808.205 13.9933 808.772 13.6933 809.252 13.28C809.745 12.8533 810.132 12.3 810.412 11.62C810.692 10.94 810.832 10.1133 810.832 9.14C810.832 8.23333 810.705 7.45333 810.452 6.8C810.198 6.13333 809.838 5.58667 809.372 5.16C808.918 4.73333 808.358 4.42 807.692 4.22C807.038 4.00667 806.305 3.9 805.492 3.9H802.792V14.46ZM801.112 2.36H805.492C806.572 2.36 807.545 2.49333 808.412 2.76C809.292 3.02667 810.045 3.44 810.672 4C811.298 4.56 811.778 5.26667 812.112 6.12C812.458 6.97333 812.632 7.98 812.632 9.14C812.632 10.3133 812.445 11.3333 812.072 12.2C811.698 13.0533 811.192 13.7667 810.552 14.34C809.912 14.9 809.158 15.32 808.292 15.6C807.425 15.8667 806.492 16 805.492 16H801.112V2.36ZM815.088 5.92L816.688 5.74V16H815.088V5.92ZM814.828 3.06C814.828 2.75333 814.928 2.5 815.128 2.3C815.342 2.08667 815.602 1.98 815.908 1.98C816.228 1.98 816.495 2.08667 816.708 2.3C816.935 2.5 817.048 2.75333 817.048 3.06C817.048 3.36667 816.935 3.62667 816.708 3.84C816.495 4.04 816.228 4.14 815.908 4.14C815.602 4.14 815.342 4.04 815.128 3.84C814.928 3.62667 814.828 3.36667 814.828 3.06ZM825.001 7.58C824.441 7.40667 823.941 7.29333 823.501 7.24C823.074 7.17333 822.681 7.14 822.321 7.14C821.854 7.14 821.461 7.25333 821.141 7.48C820.834 7.70667 820.681 8 820.681 8.36C820.694 8.68 820.834 8.95333 821.101 9.18C821.368 9.40667 821.674 9.61333 822.021 9.8C822.381 9.97333 822.774 10.1667 823.201 10.38C823.641 10.5933 824.048 10.8333 824.421 11.1C824.808 11.3667 825.121 11.6867 825.361 12.06C825.601 12.4333 825.728 12.88 825.741 13.4C825.728 13.96 825.601 14.4267 825.361 14.8C825.134 15.16 824.834 15.4533 824.461 15.68C824.101 15.8933 823.708 16.04 823.281 16.12C822.854 16.2133 822.454 16.26 822.081 16.26C821.601 16.26 821.101 16.2333 820.581 16.18C820.074 16.1267 819.528 16.0133 818.941 15.84L819.241 14.4C819.841 14.56 820.388 14.68 820.881 14.76C821.374 14.8267 821.781 14.86 822.101 14.86C822.341 14.86 822.574 14.8333 822.801 14.78C823.041 14.7267 823.254 14.6533 823.441 14.56C823.628 14.4533 823.774 14.32 823.881 14.16C824.001 14 824.061 13.82 824.061 13.62C824.048 13.2467 823.921 12.9333 823.681 12.68C823.441 12.4133 823.128 12.18 822.741 11.98C822.368 11.7667 821.961 11.56 821.521 11.36C821.094 11.1467 820.688 10.9067 820.301 10.64C819.928 10.36 819.614 10.0333 819.361 9.66C819.108 9.27333 818.981 8.8 818.981 8.24C818.981 7.84 819.081 7.48667 819.281 7.18C819.494 6.86 819.761 6.6 820.081 6.4C820.414 6.18667 820.774 6.02667 821.161 5.92C821.561 5.8 821.948 5.74 822.321 5.74C822.708 5.74 823.141 5.77333 823.621 5.84C824.101 5.89333 824.654 6 825.281 6.16L825.001 7.58ZM827.921 7.94C827.934 7.66 827.901 7.05333 827.821 6.12L829.301 5.92L829.521 7.2C829.921 6.93333 830.314 6.7 830.701 6.5C831.101 6.3 831.508 6.12667 831.921 5.98C832.334 5.82 832.734 5.74 833.121 5.74C833.668 5.74 834.121 5.80667 834.481 5.94C834.854 6.06 835.154 6.26667 835.381 6.56C835.608 6.85333 835.768 7.24 835.861 7.72C835.968 8.2 836.021 8.8 836.021 9.52V16H834.421V9.7C834.421 9.3 834.414 8.94667 834.401 8.64C834.388 8.32 834.328 8.05333 834.221 7.84C834.128 7.61333 833.974 7.44 833.761 7.32C833.561 7.2 833.274 7.14 832.901 7.14C832.554 7.14 832.188 7.22 831.801 7.38C831.414 7.52667 831.034 7.7 830.661 7.9C830.288 8.1 829.908 8.33333 829.521 8.6V16H827.921V7.94ZM846.278 15.76C845.972 15.8533 845.652 15.9333 845.318 16C844.998 16.0667 844.638 16.1267 844.238 16.18C843.852 16.2333 843.445 16.26 843.018 16.26C842.352 16.26 841.732 16.1667 841.158 15.98C840.585 15.7933 840.085 15.4933 839.658 15.08C839.232 14.6667 838.892 14.1333 838.638 13.48C838.398 12.8133 838.278 12 838.278 11.04C838.278 10.1733 838.398 9.41333 838.638 8.76C838.878 8.09333 839.205 7.54 839.618 7.1C840.045 6.64667 840.538 6.30667 841.098 6.08C841.672 5.85333 842.292 5.74 842.958 5.74C843.612 5.74 844.178 5.86667 844.658 6.12C845.138 6.37333 845.532 6.72 845.838 7.16C846.158 7.58667 846.392 8.09333 846.538 8.68C846.698 9.25333 846.778 9.86 846.778 10.5L846.478 11.38H840.018C840.018 11.7933 840.072 12.2067 840.178 12.62C840.285 13.0333 840.465 13.4067 840.718 13.74C840.985 14.0733 841.325 14.3467 841.738 14.56C842.165 14.76 842.692 14.86 843.318 14.86C843.718 14.86 844.085 14.84 844.418 14.8C844.752 14.7467 845.038 14.6933 845.278 14.64C845.532 14.5733 845.765 14.5 845.978 14.42L846.278 15.76ZM845.118 10.1C845.118 10.0067 845.098 9.8 845.058 9.48C845.018 9.16 844.925 8.82667 844.778 8.48C844.632 8.13333 844.405 7.82667 844.098 7.56C843.792 7.28 843.385 7.14 842.878 7.14C842.318 7.14 841.858 7.26 841.498 7.5C841.138 7.72667 840.852 8 840.638 8.32C840.425 8.64 840.278 8.96667 840.198 9.3C840.118 9.63333 840.078 9.9 840.078 10.1H845.118ZM847.656 5.94H849.356L851.236 10.48C851.422 10.92 851.589 11.36 851.736 11.8C851.896 12.24 852.036 12.6333 852.156 12.98C852.302 13.3933 852.429 13.7933 852.536 14.18H852.556C852.676 13.7933 852.809 13.3933 852.956 12.98C853.076 12.6333 853.216 12.24 853.376 11.8C853.536 11.36 853.702 10.92 853.876 10.48L855.616 5.94H857.296L852.536 17.94C852.349 18.4333 852.102 18.86 851.796 19.22C851.502 19.58 851.216 19.88 850.936 20.12C850.602 20.4 850.256 20.64 849.896 20.84L849.116 19.46C849.396 19.3267 849.656 19.16 849.896 18.96C850.109 18.7867 850.322 18.5667 850.536 18.3C850.749 18.0467 850.922 17.74 851.056 17.38L851.676 15.74L847.656 5.94ZM863.787 2.36H872.147V3.9H865.467V8.26H871.667V9.76H865.467V14.46H872.347V16H863.787V2.36ZM874.776 7.94C874.79 7.66 874.756 7.05333 874.676 6.12L876.156 5.92L876.376 7.2C876.776 6.93333 877.17 6.7 877.556 6.5C877.956 6.3 878.363 6.12667 878.776 5.98C879.19 5.82 879.59 5.74 879.976 5.74C880.523 5.74 880.976 5.80667 881.336 5.94C881.71 6.06 882.01 6.26667 882.236 6.56C882.463 6.85333 882.623 7.24 882.716 7.72C882.823 8.2 882.876 8.8 882.876 9.52V16H881.276V9.7C881.276 9.3 881.27 8.94667 881.256 8.64C881.243 8.32 881.183 8.05333 881.076 7.84C880.983 7.61333 880.83 7.44 880.616 7.32C880.416 7.2 880.13 7.14 879.756 7.14C879.41 7.14 879.043 7.22 878.656 7.38C878.27 7.52667 877.89 7.7 877.516 7.9C877.143 8.1 876.763 8.33333 876.376 8.6V16H874.776V7.94ZM888.034 2.94V5.94H890.934V7.24H888.034V12.58C888.034 13.02 888.041 13.3867 888.054 13.68C888.081 13.9733 888.127 14.2067 888.194 14.38C888.261 14.5533 888.354 14.68 888.474 14.76C888.594 14.8267 888.747 14.86 888.934 14.86C889.441 14.8467 890.027 14.66 890.694 14.3L891.174 15.52C890.734 15.8133 890.321 16.0067 889.934 16.1C889.561 16.2067 889.187 16.26 888.814 16.26C887.934 16.26 887.314 16.0133 886.954 15.52C886.607 15.0133 886.434 14.18 886.434 13.02V7.24H884.594V5.94H886.434V3.14L888.034 2.94ZM900.341 15.76C900.034 15.8533 899.714 15.9333 899.381 16C899.061 16.0667 898.701 16.1267 898.301 16.18C897.914 16.2333 897.508 16.26 897.081 16.26C896.414 16.26 895.794 16.1667 895.221 15.98C894.648 15.7933 894.148 15.4933 893.721 15.08C893.294 14.6667 892.954 14.1333 892.701 13.48C892.461 12.8133 892.341 12 892.341 11.04C892.341 10.1733 892.461 9.41333 892.701 8.76C892.941 8.09333 893.268 7.54 893.681 7.1C894.108 6.64667 894.601 6.30667 895.161 6.08C895.734 5.85333 896.354 5.74 897.021 5.74C897.674 5.74 898.241 5.86667 898.721 6.12C899.201 6.37333 899.594 6.72 899.901 7.16C900.221 7.58667 900.454 8.09333 900.601 8.68C900.761 9.25333 900.841 9.86 900.841 10.5L900.541 11.38H894.081C894.081 11.7933 894.134 12.2067 894.241 12.62C894.348 13.0333 894.528 13.4067 894.781 13.74C895.048 14.0733 895.388 14.3467 895.801 14.56C896.228 14.76 896.754 14.86 897.381 14.86C897.781 14.86 898.148 14.84 898.481 14.8C898.814 14.7467 899.101 14.6933 899.341 14.64C899.594 14.5733 899.828 14.5 900.041 14.42L900.341 15.76ZM899.181 10.1C899.181 10.0067 899.161 9.8 899.121 9.48C899.081 9.16 898.988 8.82667 898.841 8.48C898.694 8.13333 898.468 7.82667 898.161 7.56C897.854 7.28 897.448 7.14 896.941 7.14C896.381 7.14 895.921 7.26 895.561 7.5C895.201 7.72667 894.914 8 894.701 8.32C894.488 8.64 894.341 8.96667 894.261 9.3C894.181 9.63333 894.141 9.9 894.141 10.1H899.181ZM903.038 7.56C903.038 7.25333 903.005 6.77333 902.938 6.12L904.418 5.92L904.578 7.38H904.598C904.838 7.07333 905.071 6.80667 905.298 6.58C905.525 6.35333 905.758 6.16 905.998 6C906.251 5.82667 906.491 5.74 906.718 5.74C907.025 5.72667 907.451 5.76 907.998 5.84L907.638 7.38C907.198 7.3 906.891 7.26667 906.718 7.28C906.491 7.28 906.251 7.38667 905.998 7.6C905.745 7.81333 905.525 8.04 905.338 8.28C905.098 8.57333 904.865 8.90667 904.638 9.28V16H903.038V7.56ZM912.096 2.94V5.94H914.996V7.24H912.096V12.58C912.096 13.02 912.103 13.3867 912.116 13.68C912.143 13.9733 912.19 14.2067 912.256 14.38C912.323 14.5533 912.416 14.68 912.536 14.76C912.656 14.8267 912.81 14.86 912.996 14.86C913.503 14.8467 914.09 14.66 914.756 14.3L915.236 15.52C914.796 15.8133 914.383 16.0067 913.996 16.1C913.623 16.2067 913.25 16.26 912.876 16.26C911.996 16.26 911.376 16.0133 911.016 15.52C910.67 15.0133 910.496 14.18 910.496 13.02V7.24H908.656V5.94H910.496V3.14L912.096 2.94ZM922.642 11.38C922.375 11.3933 922.122 11.4067 921.882 11.42C921.642 11.4333 921.402 11.4533 921.162 11.48C920.935 11.4933 920.728 11.5133 920.542 11.54C919.582 11.66 918.902 11.8733 918.502 12.18C918.102 12.4733 917.902 12.9 917.902 13.46C917.902 13.9267 918.042 14.28 918.322 14.52C918.615 14.7467 918.995 14.86 919.462 14.86C920.102 14.86 920.668 14.7533 921.162 14.54C921.668 14.3133 922.162 14.02 922.642 13.66V11.38ZM922.622 15.06C921.995 15.42 921.408 15.7133 920.862 15.94C920.328 16.1533 919.748 16.26 919.122 16.26C918.228 16.26 917.515 16.0467 916.982 15.62C916.462 15.18 916.202 14.46 916.202 13.46C916.202 12.94 916.335 12.4867 916.602 12.1C916.868 11.7133 917.215 11.3933 917.642 11.14C918.082 10.8733 918.575 10.6667 919.122 10.52C919.668 10.3733 920.228 10.28 920.802 10.24C921.042 10.2133 921.355 10.1933 921.742 10.18C922.128 10.1533 922.428 10.1333 922.642 10.12C922.642 9.65333 922.628 9.24 922.602 8.88C922.575 8.50667 922.495 8.19333 922.362 7.94C922.228 7.67333 922.028 7.47333 921.762 7.34C921.508 7.20667 921.142 7.14 920.662 7.14C920.275 7.14 919.902 7.16667 919.542 7.22C919.182 7.26 918.862 7.30667 918.582 7.36C918.248 7.42667 917.942 7.5 917.662 7.58L917.342 6.2C917.675 6.12 918.035 6.04667 918.422 5.98C918.755 5.91333 919.142 5.86 919.582 5.82C920.022 5.76667 920.495 5.74 921.002 5.74C921.682 5.74 922.228 5.84 922.642 6.04C923.068 6.24 923.395 6.51333 923.622 6.86C923.862 7.19333 924.022 7.58 924.102 8.02C924.195 8.44667 924.242 8.9 924.242 9.38V14.18C924.242 14.3667 924.242 14.5667 924.242 14.78C924.255 14.98 924.268 15.18 924.282 15.38C924.308 15.58 924.335 15.7867 924.362 16L922.822 16.16L922.622 15.06ZM927.061 5.92L928.661 5.74V16H927.061V5.92ZM926.801 3.06C926.801 2.75333 926.901 2.5 927.101 2.3C927.314 2.08667 927.574 1.98 927.881 1.98C928.201 1.98 928.468 2.08667 928.681 2.3C928.908 2.5 929.021 2.75333 929.021 3.06C929.021 3.36667 928.908 3.62667 928.681 3.84C928.468 4.04 928.201 4.14 927.881 4.14C927.574 4.14 927.314 4.04 927.101 3.84C926.901 3.62667 926.801 3.36667 926.801 3.06ZM931.554 7.94C931.567 7.66 931.534 7.05333 931.454 6.12L932.934 5.92L933.154 7.2C933.554 6.93333 933.947 6.7 934.334 6.5C934.734 6.3 935.14 6.12667 935.554 5.98C935.967 5.82 936.367 5.74 936.754 5.74C937.3 5.74 937.754 5.80667 938.114 5.94C938.487 6.06 938.787 6.26667 939.014 6.56C939.24 6.85333 939.4 7.24 939.494 7.72C939.6 8.2 939.654 8.8 939.654 9.52V16H938.054V9.7C938.054 9.3 938.047 8.94667 938.034 8.64C938.02 8.32 937.96 8.05333 937.854 7.84C937.76 7.61333 937.607 7.44 937.394 7.32C937.194 7.2 936.907 7.14 936.534 7.14C936.187 7.14 935.82 7.22 935.434 7.38C935.047 7.52667 934.667 7.7 934.294 7.9C933.92 8.1 933.54 8.33333 933.154 8.6V16H931.554V7.94ZM942.491 7.76C942.491 7.30667 942.451 6.76 942.371 6.12L943.871 5.92L944.091 7.18C944.451 6.91333 944.805 6.68 945.151 6.48C945.498 6.28 945.871 6.10667 946.271 5.96C946.671 5.81333 947.078 5.74 947.491 5.74C948.158 5.74 948.685 5.86 949.071 6.1C949.458 6.32667 949.745 6.72 949.931 7.28C950.478 6.89333 951.045 6.54 951.631 6.22C952.231 5.9 952.851 5.74 953.491 5.74C953.985 5.74 954.405 5.80667 954.751 5.94C955.098 6.06 955.378 6.26667 955.591 6.56C955.805 6.85333 955.958 7.24 956.051 7.72C956.145 8.2 956.191 8.8 956.191 9.52V16H954.591V9.7C954.591 9.3 954.585 8.94667 954.571 8.64C954.558 8.32 954.511 8.05333 954.431 7.84C954.351 7.61333 954.218 7.44 954.031 7.32C953.858 7.2 953.605 7.14 953.271 7.14C952.965 7.14 952.671 7.18667 952.391 7.28C952.125 7.36 951.845 7.48 951.551 7.64C951.258 7.8 950.805 8.12667 950.191 8.62V16H948.591V9.7C948.591 9.3 948.585 8.94667 948.571 8.64C948.558 8.32 948.511 8.05333 948.431 7.84C948.351 7.61333 948.218 7.44 948.031 7.32C947.858 7.2 947.605 7.14 947.271 7.14C946.925 7.14 946.565 7.21333 946.191 7.36C945.818 7.50667 945.465 7.68 945.131 7.88C944.798 8.08 944.451 8.31333 944.091 8.58V16H942.491V7.76ZM966.454 15.76C966.148 15.8533 965.828 15.9333 965.494 16C965.174 16.0667 964.814 16.1267 964.414 16.18C964.028 16.2333 963.621 16.26 963.194 16.26C962.528 16.26 961.908 16.1667 961.334 15.98C960.761 15.7933 960.261 15.4933 959.834 15.08C959.408 14.6667 959.068 14.1333 958.814 13.48C958.574 12.8133 958.454 12 958.454 11.04C958.454 10.1733 958.574 9.41333 958.814 8.76C959.054 8.09333 959.381 7.54 959.794 7.1C960.221 6.64667 960.714 6.30667 961.274 6.08C961.848 5.85333 962.468 5.74 963.134 5.74C963.788 5.74 964.354 5.86667 964.834 6.12C965.314 6.37333 965.708 6.72 966.014 7.16C966.334 7.58667 966.568 8.09333 966.714 8.68C966.874 9.25333 966.954 9.86 966.954 10.5L966.654 11.38H960.194C960.194 11.7933 960.248 12.2067 960.354 12.62C960.461 13.0333 960.641 13.4067 960.894 13.74C961.161 14.0733 961.501 14.3467 961.914 14.56C962.341 14.76 962.868 14.86 963.494 14.86C963.894 14.86 964.261 14.84 964.594 14.8C964.928 14.7467 965.214 14.6933 965.454 14.64C965.708 14.5733 965.941 14.5 966.154 14.42L966.454 15.76ZM965.294 10.1C965.294 10.0067 965.274 9.8 965.234 9.48C965.194 9.16 965.101 8.82667 964.954 8.48C964.808 8.13333 964.581 7.82667 964.274 7.56C963.968 7.28 963.561 7.14 963.054 7.14C962.494 7.14 962.034 7.26 961.674 7.5C961.314 7.72667 961.028 8 960.814 8.32C960.601 8.64 960.454 8.96667 960.374 9.3C960.294 9.63333 960.254 9.9 960.254 10.1H965.294ZM969.151 7.94C969.165 7.66 969.131 7.05333 969.051 6.12L970.531 5.92L970.751 7.2C971.151 6.93333 971.545 6.7 971.931 6.5C972.331 6.3 972.738 6.12667 973.151 5.98C973.565 5.82 973.965 5.74 974.351 5.74C974.898 5.74 975.351 5.80667 975.711 5.94C976.085 6.06 976.385 6.26667 976.611 6.56C976.838 6.85333 976.998 7.24 977.091 7.72C977.198 8.2 977.251 8.8 977.251 9.52V16H975.651V9.7C975.651 9.3 975.645 8.94667 975.631 8.64C975.618 8.32 975.558 8.05333 975.451 7.84C975.358 7.61333 975.205 7.44 974.991 7.32C974.791 7.2 974.505 7.14 974.131 7.14C973.785 7.14 973.418 7.22 973.031 7.38C972.645 7.52667 972.265 7.7 971.891 7.9C971.518 8.1 971.138 8.33333 970.751 8.6V16H969.151V7.94ZM982.409 2.94V5.94H985.309V7.24H982.409V12.58C982.409 13.02 982.416 13.3867 982.429 13.68C982.456 13.9733 982.502 14.2067 982.569 14.38C982.636 14.5533 982.729 14.68 982.849 14.76C982.969 14.8267 983.122 14.86 983.309 14.86C983.816 14.8467 984.402 14.66 985.069 14.3L985.549 15.52C985.109 15.8133 984.696 16.0067 984.309 16.1C983.936 16.2067 983.562 16.26 983.189 16.26C982.309 16.26 981.689 16.0133 981.329 15.52C980.982 15.0133 980.809 14.18 980.809 13.02V7.24H978.969V5.94H980.809V3.14L982.409 2.94Z" fill="white"/>
</svg>
